<svg width="313" height="215" fill="none" xmlns="http://www.w3.org/2000/svg"><path d="M4.7 213.908c6.94-.328 13.87-.65 20.81-.977 2.098-.095 2.898-2.971 1.919-4.869-1.93-3.706-3.864-7.425-5.783-11.135 19.311-15.875 42.744-23.076 66.218-24.778 24.984-1.807 52.844 6.515 75.971-8.231 4.913-3.133 10.453-8.401 15.283-14.811 12.397 7.665 27.807 10.017 40.399 7.184 16.712-3.759 30.794-17.252 37.228-35.451 15.813-3.325 31.24-16.528 40.515-30.365 16.921-25.27 20.445-59.974 9.377-89.397-.776-2.046-3.516-.919-2.79 1.208 7.779 22.578 7.597 48.528-1.743 70.442-8.492 19.933-24.809 37.381-43.558 42.125a67.295 67.295 0 001.586-9.044c2.033-19.534-8.682-52.926-29.872-41.726-19.326 10.216-15.486 39.351.265 51.23 6.468 4.877 13.527 6.688 20.632 6.289-5.976 14.333-17.281 25.07-30.803 28.646-12.003 3.17-26.354 1.232-37.999-5.767 8.887-13.803 13.682-31.263 3.68-44.358-5.917-7.75-15.303-8.464-21.751-1.204-7.224 8.141-7.702 20.685-2.982 30.624 3.256 6.859 8.062 12.441 13.737 16.759-9.586 12.212-23.73 18.956-38.101 20.163-11.533.97-23.075-.409-34.62-.618-11.475-.224-22.99.679-34.31 3.035-17.54 3.659-34.517 10.861-49.1 22.796-1.002-1.933-2.02-3.875-3.021-5.808-.63-1.857-1.213-3.72-1.77-5.624-.41-1.42-1.613-1.935-2.68-1.724-1.354-.479-2.978.757-3.416 2.455-2.622 10.173-5.224 20.368-7.894 30.547-.867 3.304 2.92 4.579 4.573 2.384zm222.296-109.315c-5.836-8.095-7.665-19.684-1.967-28.541 6.106-9.478 16.87-11.209 23.731-1.798 5.936 8.14 7.693 20.1 6.63 30.531a59.87 59.87 0 01-2.184 11.034c-9.73 1.047-19.627-2.109-26.21-11.226zm-59.378 25.751c-5.751-8.916-7.043-25.293 3.791-30.132 4.956-2.22 9.917 1.313 12.557 6.28 3.106 5.844 2.617 13.186.968 19.506-1.526 5.867-3.832 11.096-6.703 15.697-4.086-3.068-7.718-6.85-10.613-11.351z" fill="#3F3E3E"/></svg>