<svg width="317" height="169" fill="none" xmlns="http://www.w3.org/2000/svg"><path d="M314.646 38.565c-1.953-2.975-5.335-3.818-8.37-4.777-4.779-1.52-9.603-3.042-14.472-4.199-1.473-.347-2.615 2.05-1.082 2.843 2.39 1.24 4.839 2.315 7.289 3.422 2.629 1.19 6.732 2.133 8.971 4 .12.1.226.216.346.315-21.054 17.688-47.638 26.647-74.117 23.572-.797-.099-1.593-.198-2.389-.314 7.724-5.537 13.404-13.77 14.757-25.358C247.908 18.067 233.947 0 215.418.017c-17.041.017-30.942 18.399-27.636 36.896 2.63 14.663 13.42 23.457 25.728 28.4-22.737 6.463-49.637-2.76-70.18-11.621-24.12-10.398-50.478-25.21-76.942-15.969-19.28 6.745-33.302 26.036-35.03 48.187a29.516 29.516 0 00-.09 1.653c-6.762 2.265-13.15 5.604-18.394 9.455-21.099 15.44-32.084 42.418-29.5 69.974.12 1.323 2.014 1.372 1.924 0-1.984-29.755 11.947-58.683 36.878-71.445a65.856 65.856 0 019.047-3.802c.601 19.556 11.06 44.153 30.702 44.814 18.784.629 24.18-24.895 14.08-38.813-9.512-13.126-24.9-15.175-39.402-11.72.932-11.026 5.14-21.507 12.232-29.673 21.625-24.911 53.574-14.993 78.836-3.57 24.285 10.976 49.381 22.184 76.206 19.853 6.251-.546 12.608-1.967 18.439-4.463a82.859 82.859 0 0013.525 2.28c26.449 2.282 53.018-6.595 74.207-23.985 0 1.967-.451 4.083-.737 6.364-.45 3.637-.931 7.257-1.322 10.91-.376 3.505 5.14 4.348 5.635.844.737-5.29 1.338-10.613 1.939-15.936.406-3.505 1.067-7.042-.917-10.084zM65.321 93.761c11.39 7.455 18.198 32.284.45 36.863-16.875 4.364-27.665-19.87-29.108-34.466a55.868 55.868 0 01-.255-5.918c9.858-2.364 20.347-2.083 28.913 3.52zm157.16-32.003c-8.385-2.182-16.5-6.05-22.511-12.811-9.768-10.977-8.987-28.086 2.194-37.607 11.21-9.555 28.041-4.381 34.864 8.794 7.334 14.15 1.022 32.185-11.331 39.805a45.011 45.011 0 01-3.216 1.819z" fill="#3F3E3E"/></svg>