<svg version="1.0" xmlns="http://www.w3.org/2000/svg" width="933.333" height="933.333" viewBox="0 0 700 700"><path d="M213.8 99.7c-8.3 1-13.3 1.8-16.3 2.7-.5.1-3 .8-5.5 1.5-7.4 2.1-19 7.2-27.6 12.1-30.8 17.7-53.2 47.2-61.8 81.5-3 12.1-3.9 18.7-4 32.4-.2 8.3-.5 10.5-1.6 10.6-.8.1-4.8.5-8.8.9-4 .3-11.6 2-16.9 3.8-25.7 8.5-45.7 27.9-54.8 52.9-3.7 10.4-4.6 15.2-5.1 26.8-1.2 29.7 13.2 58.5 37.3 74.9l6.1 4.2.1 62.7c.1 34.6.3 64.2.5 65.8 1 7.1 7.7 19.6 12.8 24.1 7.8 6.7 18.1 11.4 26.2 11.8l3.1.2.5 16.4.5 16.5h32.8l32.7.1.1-4.6v-16.3L164 569l3.7-.1c4.3 0 366.4 0 367.5.1.3 0 .6 7 .6 15.6s.3 15.9.7 16.2c.4.4 15 .7 32.6.7 27.8.1 32-.1 32.4-1.5.2-.8.4-4.7.4-8.5v-15.1l.1-8.1 2.8.2c3.4.2 12.3-2.5 18.1-5.4 8.5-4.4 19.1-17.7 19.9-25.1 0-.3.6-1.8 1.2-3.4.7-2 1.1-22.6 1.1-66.6v-63.7l5.2-3.6c19.8-13.7 33-34.2 37.4-58.2.9-5.3 1-24 0-29-6.7-35.4-32.5-62.7-66.7-70.6-4.2-1-9.4-1.7-16.4-2.2l-3-.2-.2-11c-.3-13.7-1.3-22-3.9-32-10.5-40.4-38.1-72.4-76.5-88.8-8.9-3.8-20.4-7.1-28-8.2-2.5-.3-5.4-.9-6.5-1.2-3.9-1.3-262.8-.9-272.7.4z"/></svg>