<svg width="10" height="294" fill="none" xmlns="http://www.w3.org/2000/svg"><path d="M3.714 39.125a5.09 5.09 0 012.02.002c3.043.499 4.678 2.894 4.172 5.292-.031.15-.09.236-.161.272-.91 2.618-3.943 3.206-6.39 2.38-.882-.218-1.68-.65-2.248-1.343-.027-.032-.04-.066-.068-.098C.403 44.944 0 44.075 0 43.066c0-1.784 1.416-3.434 3.517-3.895a.839.839 0 01.08-.019l.117-.026zm.627.837a4.735 4.735 0 00-1.644.43c-.39.204-.744.475-1.026.829-.703.881-1.003 2.049-.64 3.056.318.653.882 1.238 1.657 1.647 2.514 1.105 6.653.158 6.555-2.542a4.01 4.01 0 00-.063-.537c-.345-1.086-1.29-2.002-2.482-2.5-.721-.236-1.528-.357-2.357-.383zm.059-6.278c.42-.144.914-.22 1.389-.186.188 0 .371.032.542.09.004 0 .004.002.009.002.058.02.116.04.174.066.14.055.27.117.39.202.48.338.74.773.928 1.238.206.375.286.792.21 1.217-.009.065-.018.131-.031.191a2.03 2.03 0 01-.435.79 2.04 2.04 0 01-.757.57 3.005 3.005 0 01-1.904.23c-1.232-.247-2.083-1.361-2.039-2.337.005-.124.027-.247.063-.373a2.174 2.174 0 011.46-1.7zm-.686 1.191c-.61.756-.399 1.713.64 2.212.718.346 1.74.537 2.492.136.672-.357.86-.923.712-1.464l-.08-.22c-.202-.456-.641-.866-1.224-1.068-.85-.296-1.94-.105-2.54.404zm1.349-16.258c1.613 2.953.448 5.983-.121 8.979-.238 1.248-.516 3.127.748 4.097.18.14.233-.215.175-.301-1.6-2.306.277-5.357.645-7.747a9.046 9.046 0 00-.981-5.65c-.256-.467-.623.336-.466.622zm.945-3.738c.31.165.524.438.627.732.01.013.023.026.032.047.215.52-.054.937-.493 1.183-.318.218-.74.328-1.143.22-.439-.055-.828-.275-.967-.716a1.157 1.157 0 01-.059-.37c-.085-.398.045-.797.466-1.023.359-.31.905-.414 1.537-.073zm-1.76 1.152c.008.055.03.104.049.154.067.126.17.244.309.341.39.239 1.003.236 1.425.055.044-.029.09-.063.13-.097.501-.443.246-1.128-.426-1.366-.811-.289-1.618.202-1.488.912zM5.677.034c-1.264.97-.982 2.849-.749 4.097.57 2.996 1.734 6.026.121 8.98-.157.285.21 1.085.466.621a9.046 9.046 0 00.981-5.65c-.367-2.39-2.244-5.44-.645-7.746.063-.087.01-.444-.174-.302zM3.714 88.441a5.09 5.09 0 012.02.003c3.043.498 4.678 2.893 4.172 5.29-.031.15-.09.237-.161.273-.91 2.618-3.943 3.206-6.39 2.38-.882-.218-1.68-.65-2.248-1.343-.027-.032-.04-.066-.068-.097C.403 94.259 0 93.39 0 92.38c0-1.784 1.416-3.434 3.517-3.895a.839.839 0 01.08-.019l.117-.026zm.627.837a4.735 4.735 0 00-1.644.43 3.19 3.19 0 00-1.026.829c-.703.881-1.003 2.049-.64 3.056.318.653.882 1.238 1.657 1.647 2.514 1.105 6.653.158 6.555-2.541a4.013 4.013 0 00-.063-.538c-.345-1.086-1.29-2.002-2.482-2.5-.721-.236-1.528-.357-2.357-.383zM4.4 83c.42-.144.914-.22 1.389-.186.188 0 .371.032.542.092.004 0 .004.003.009.003.058.02.116.04.174.065.14.055.27.118.39.202.48.339.74.774.928 1.239.206.375.286.792.21 1.217-.009.065-.018.13-.031.191a2.03 2.03 0 01-.435.79 2.042 2.042 0 01-.757.569c-.542.265-1.21.37-1.904.23-1.232-.246-2.083-1.36-2.039-2.336.005-.124.027-.247.063-.373a2.17 2.17 0 011.46-1.702zm-.686 1.192c-.61.755-.399 1.713.64 2.21.718.347 1.74.539 2.492.137.672-.356.86-.923.712-1.463l-.08-.22c-.202-.457-.641-.866-1.224-1.068-.85-.297-1.94-.105-2.54.404zm1.349-16.259c1.613 2.954.448 5.983-.121 8.98-.238 1.248-.516 3.126.748 4.097.18.139.233-.216.175-.302-1.6-2.306.277-5.357.645-7.746a9.046 9.046 0 00-.981-5.65c-.256-.468-.623.335-.466.62zm.945-3.738c.31.165.524.438.627.732.01.013.023.026.032.047.215.52-.054.936-.493 1.183-.318.218-.74.328-1.143.22-.439-.055-.828-.275-.967-.716a1.156 1.156 0 01-.059-.37c-.085-.398.045-.797.466-1.023.359-.31.905-.414 1.537-.073zm-1.76 1.152c.008.055.03.104.049.154.067.126.17.244.309.341.39.239 1.003.236 1.425.055.044-.029.09-.063.13-.097.501-.443.246-1.128-.426-1.366-.811-.289-1.618.202-1.488.913zM5.677 49.35c-1.264.97-.982 2.85-.749 4.098.57 2.995 1.734 6.025.121 8.979-.157.286.21 1.086.466.622a9.046 9.046 0 00.981-5.65c-.367-2.39-2.244-5.441-.645-7.747.063-.087.01-.443-.174-.302zm-1.963 88.407a5.091 5.091 0 012.02.003c3.043.498 4.678 2.893 4.172 5.291-.031.149-.09.236-.161.273-.91 2.618-3.943 3.205-6.39 2.379-.882-.218-1.68-.651-2.248-1.343-.027-.032-.04-.066-.068-.097C.403 143.575 0 142.707 0 141.697c0-1.784 1.416-3.434 3.517-3.895.027-.008.054-.013.08-.019l.117-.026zm.627.837a4.739 4.739 0 00-1.644.43 3.19 3.19 0 00-1.026.829c-.703.882-1.003 2.049-.64 3.056.318.653.882 1.238 1.657 1.648 2.514 1.104 6.653.157 6.555-2.542a4.002 4.002 0 00-.063-.538c-.345-1.086-1.29-2.002-2.482-2.5-.721-.236-1.528-.357-2.357-.383zm.059-6.277a3.58 3.58 0 011.389-.187c.188 0 .371.032.542.092.004 0 .004.003.009.003.058.021.116.039.174.065.14.055.27.118.39.202.48.339.74.774.928 1.238.206.376.286.793.21 1.218-.009.065-.018.131-.031.191-.08.291-.233.559-.435.79a2.051 2.051 0 01-.757.569c-.542.265-1.21.37-1.904.231-1.232-.247-2.083-1.362-2.039-2.338.005-.123.027-.246.063-.372a2.17 2.17 0 011.46-1.702zm-.686 1.19c-.61.756-.399 1.713.64 2.212.718.346 1.74.538 2.492.136.672-.357.86-.923.712-1.464a53.176 53.176 0 01-.08-.22c-.202-.456-.641-.865-1.224-1.067-.85-.297-1.94-.105-2.54.403zm1.349-16.258c1.613 2.954.448 5.984-.121 8.979-.238 1.249-.516 3.127.748 4.098.18.139.233-.215.175-.302-1.6-2.306.277-5.357.645-7.746a9.047 9.047 0 00-.981-5.651c-.256-.467-.623.336-.466.622zm.945-3.738c.31.165.524.438.627.732.01.013.023.026.032.047.215.519-.054.936-.493 1.183-.318.218-.74.328-1.143.22-.439-.055-.828-.275-.967-.716a1.155 1.155 0 01-.059-.37c-.085-.398.045-.797.466-1.023.359-.309.905-.414 1.537-.073zm-1.76 1.152c.008.055.03.104.049.154.067.126.17.244.309.341.39.239 1.003.236 1.425.055a1.17 1.17 0 00.13-.097c.501-.443.246-1.128-.426-1.366-.811-.289-1.618.202-1.488.913zm1.429-15.999c-1.264.97-.982 2.849-.749 4.097.57 2.996 1.734 6.026.121 8.979-.157.286.21 1.086.466.622a9.046 9.046 0 00.981-5.65c-.367-2.39-2.244-5.441-.645-7.746.063-.084.01-.441-.174-.302zm-1.963 88.409a5.091 5.091 0 012.02.003c3.043.498 4.678 2.893 4.172 5.291-.031.15-.09.236-.161.273-.91 2.618-3.943 3.205-6.39 2.379-.882-.218-1.68-.65-2.248-1.343-.027-.031-.04-.066-.068-.097C.403 192.892 0 192.023 0 191.013c0-1.783 1.416-3.433 3.517-3.895a.778.778 0 01.08-.018 1.63 1.63 0 01.117-.027zm.627.837a4.76 4.76 0 00-1.644.43 3.19 3.19 0 00-1.026.829c-.703.882-1.003 2.049-.64 3.056.318.654.882 1.239 1.657 1.648 2.514 1.104 6.653.157 6.555-2.542a4.022 4.022 0 00-.063-.538c-.345-1.086-1.29-2.001-2.482-2.5-.721-.236-1.528-.357-2.357-.383zm.059-6.277a3.6 3.6 0 011.389-.186c.188 0 .371.031.542.092.004 0 .004.002.009.002.058.021.116.039.174.066.14.055.27.118.39.202.48.338.74.774.928 1.238.206.375.286.792.21 1.217a2.414 2.414 0 01-.031.192 2.03 2.03 0 01-.435.789 2.03 2.03 0 01-.757.569c-.542.265-1.21.37-1.904.231-1.232-.246-2.083-1.361-2.039-2.337.005-.123.027-.247.063-.373a2.17 2.17 0 011.46-1.702zm-.686 1.191c-.61.755-.399 1.713.64 2.211.718.346 1.74.538 2.492.137.672-.357.86-.924.712-1.464l-.08-.22c-.202-.457-.641-.866-1.224-1.068-.85-.297-1.94-.105-2.54.404zm1.349-16.259c1.613 2.954.448 5.984-.121 8.979-.238 1.249-.516 3.127.748 4.098.18.139.233-.215.175-.302-1.6-2.306.277-5.356.645-7.746a9.043 9.043 0 00-.981-5.65c-.256-.467-.623.335-.466.621zm.945-3.738c.31.165.524.438.627.732.01.013.023.026.032.047.215.52-.054.937-.493 1.183-.318.218-.74.328-1.143.221-.439-.055-.828-.276-.967-.717a1.149 1.149 0 01-.059-.369c-.085-.399.045-.798.466-1.023.359-.31.905-.415 1.537-.074zm-1.76 1.152c.008.055.03.105.049.154.067.126.17.244.309.341.39.239 1.003.237 1.425.056a1.31 1.31 0 00.13-.097c.501-.444.246-1.128-.426-1.367-.811-.291-1.618.202-1.488.913zm1.429-15.999c-1.264.971-.982 2.849-.749 4.097.57 2.996 1.734 6.026.121 8.98-.157.285.21 1.086.466.621a9.046 9.046 0 00.981-5.65c-.367-2.39-2.244-5.441-.645-7.746.063-.084.01-.441-.174-.302zm-1.963 88.409a5.091 5.091 0 012.02.003c3.043.498 4.678 2.893 4.172 5.291-.031.149-.09.236-.161.273-.91 2.618-3.943 3.205-6.39 2.379-.882-.218-1.68-.651-2.248-1.343-.027-.032-.04-.066-.068-.097C.403 242.208 0 241.339 0 240.329c0-1.783 1.416-3.433 3.517-3.895.027-.008.054-.013.08-.018a1.63 1.63 0 01.117-.027zm.627.837a4.739 4.739 0 00-1.644.43 3.19 3.19 0 00-1.026.829c-.703.882-1.003 2.049-.64 3.056.318.653.882 1.238 1.657 1.648 2.514 1.104 6.653.157 6.555-2.542a4.022 4.022 0 00-.063-.538c-.345-1.086-1.29-2.002-2.482-2.5-.721-.236-1.528-.357-2.357-.383zm.059-6.277a3.6 3.6 0 011.389-.186c.188 0 .371.031.542.091.004 0 .004.003.009.003.058.021.116.039.174.066.14.055.27.118.39.202.48.338.74.773.928 1.238.206.375.286.792.21 1.217a2.316 2.316 0 01-.031.191c-.08.292-.233.559-.435.79a2.04 2.04 0 01-.757.569c-.542.265-1.21.37-1.904.231-1.232-.246-2.083-1.361-2.039-2.337.005-.123.027-.247.063-.373a2.17 2.17 0 011.46-1.702zm-.686 1.191c-.61.755-.399 1.713.64 2.211.718.346 1.74.538 2.492.137.672-.357.86-.924.712-1.464l-.08-.221c-.202-.456-.641-.865-1.224-1.067-.85-.297-1.94-.105-2.54.404zm1.349-16.259c1.613 2.954.448 5.984-.121 8.979-.238 1.249-.516 3.127.748 4.098.18.139.233-.215.175-.302-1.6-2.306.277-5.356.645-7.746a9.047 9.047 0 00-.981-5.651c-.256-.467-.623.336-.466.622zm.945-3.738c.31.165.524.438.627.732.01.013.023.026.032.047.215.519-.054.937-.493 1.183-.318.218-.74.328-1.143.221-.439-.056-.828-.276-.967-.717a1.153 1.153 0 01-.059-.369c-.085-.399.045-.798.466-1.024.359-.309.905-.414 1.537-.073zm-1.76 1.152c.008.055.03.105.049.154.067.126.17.244.309.341.39.239 1.003.236 1.425.055.044-.028.09-.062.13-.097.501-.443.246-1.128-.426-1.366-.811-.291-1.618.202-1.488.913zm1.429-15.999c-1.264.97-.982 2.849-.749 4.097.57 2.996 1.734 6.026.121 8.979-.157.286.21 1.086.466.622a9.046 9.046 0 00.981-5.65c-.367-2.39-2.244-5.441-.645-7.747.063-.083.01-.44-.174-.301zm-1.963 88.407a5.091 5.091 0 012.02.003c3.043.498 4.678 2.893 4.172 5.291-.031.149-.09.236-.161.273-.91 2.618-3.943 3.205-6.39 2.379-.882-.218-1.68-.651-2.248-1.343-.023-.029-.04-.066-.068-.097C.403 291.522 0 290.653 0 289.643c0-1.783 1.416-3.433 3.517-3.895.027-.008.054-.013.08-.018a1.63 1.63 0 01.117-.027zm.627.837a4.739 4.739 0 00-1.644.43 3.19 3.19 0 00-1.026.829c-.703.882-1.003 2.049-.64 3.056.313.656.878 1.241 1.653 1.65 2.513 1.105 6.653.158 6.554-2.542a3.987 3.987 0 00-.062-.537c-.345-1.086-1.29-2.002-2.482-2.5-.717-.239-1.524-.36-2.353-.386zm.059-6.275a3.6 3.6 0 011.389-.186c.188 0 .371.031.542.092.004 0 .004.002.009.002.058.021.116.04.174.066.14.055.27.118.39.202.48.338.74.774.928 1.238.206.375.286.792.21 1.217a2.414 2.414 0 01-.031.192 2.03 2.03 0 01-.435.789 2.03 2.03 0 01-.757.569c-.542.265-1.21.37-1.904.231-1.232-.246-2.083-1.361-2.039-2.337.005-.123.027-.247.063-.373a2.17 2.17 0 011.46-1.702zm-.686 1.191c-.61.755-.399 1.713.64 2.211.718.347 1.74.538 2.492.137.672-.357.86-.924.712-1.464l-.08-.22c-.202-.457-.641-.866-1.224-1.068-.85-.296-1.94-.105-2.54.404zm1.349-16.259c1.613 2.954.448 5.984-.121 8.98-.238 1.248-.516 3.126.748 4.097.18.139.233-.215.175-.302-1.6-2.306.277-5.356.645-7.746a9.046 9.046 0 00-.981-5.65c-.256-.467-.623.335-.466.621zm.945-3.738c.31.165.524.438.627.732.01.013.023.026.032.047.215.52-.054.937-.493 1.183-.318.218-.74.328-1.143.221-.439-.055-.828-.276-.967-.716a1.159 1.159 0 01-.059-.37c-.085-.399.045-.798.466-1.023.359-.31.905-.417 1.537-.074zm-1.76 1.152c.008.055.03.105.049.155.067.125.17.243.309.341.39.238 1.003.236 1.425.055a1.31 1.31 0 00.13-.097c.501-.444.246-1.128-.426-1.367-.811-.291-1.618.202-1.488.913zm1.429-15.999c-1.264.971-.982 2.849-.749 4.097.57 2.996 1.734 6.026.121 8.98-.157.286.21 1.086.466.621a9.046 9.046 0 00.981-5.65c-.367-2.39-2.244-5.441-.645-7.746.063-.084.01-.441-.174-.302z" fill="#272425"/></svg>