<svg width="70" height="109" fill="none" xmlns="http://www.w3.org/2000/svg"><g opacity=".5" clip-path="url(#clip0_96_1481)" fill="#000"><path d="M39.03 54.35a.22.22 0 100-.44.22.22 0 000 .44zm-1.17 7.42a.22.22 0 100-.44.22.22 0 000 .44zm-3.41 6.69a.22.22 0 100-.44.22.22 0 000 .44zm-5.31 5.31a.22.22 0 100-.44.22.22 0 000 .44zm-6.69 3.41c.12 0 .22-.1.22-.22s-.1-.22-.22-.22-.22.1-.22.22c.01.12.1.22.22.22zm-7.42 1.17a.22.22 0 100-.44.22.22 0 000 .44zm-7.41-1.17c.12 0 .22-.1.22-.22s-.1-.22-.22-.22-.22.1-.22.22.1.22.22.22zm-6.69-3.4a.23.23 0 100-.46.23.23 0 000 .46zm0-38.79a.27.27 0 100-.54.27.27 0 000 .54zm6.69-3.42c.15 0 .27-.12.27-.27 0-.15-.12-.27-.27-.27-.15 0-.27.12-.27.27 0 .16.12.27.27.27zm7.41-1.19c.14 0 .25-.11.25-.25s-.11-.25-.25-.25-.25.11-.25.25c.01.14.12.25.25.25zm7.42 1.18c.14 0 .25-.11.25-.25s-.11-.25-.25-.25-.25.11-.25.25.11.25.25.25zm6.69 3.41c.14 0 .25-.11.25-.25s-.11-.25-.25-.25-.25.11-.25.25c0 .13.11.25.25.25zm5.31 5.29c.13 0 .23-.1.23-.23s-.1-.23-.23-.23-.23.1-.23.23.1.23.23.23zm3.41 6.68a.22.22 0 100-.44.22.22 0 000 .44zm7.17 7.94a.75.75 0 100-1.5.75.75 0 000 1.5zm-.94 7.46a.75.75 0 100-1.5.75.75 0 000 1.5zm-2.77 6.98c.4 0 .73-.33.73-.73 0-.4-.33-.73-.73-.73-.4 0-.73.33-.73.73 0 .4.33.73.73.73zM36.9 75.4c.4 0 .73-.33.73-.73 0-.4-.33-.73-.73-.73-.4 0-.73.33-.73.73 0 .4.33.73.73.73zm-5.79 4.8c.4 0 .73-.33.73-.73 0-.4-.33-.73-.73-.73-.4 0-.73.33-.73.73 0 .4.33.73.73.73zm-6.8 3.2c.4 0 .73-.33.73-.73 0-.4-.33-.73-.73-.73-.4 0-.73.33-.73.73-.01.4.32.73.73.73zm-7.39 1.42a.75.75 0 100-1.5.75.75 0 000 1.5zm-7.51-.47a.75.75 0 100-1.5.75.75 0 000 1.5zm-7.15-2.32a.75.75 0 100-1.5.75.75 0 000 1.5zm0-54.24a.8.8 0 100-1.6.8.8 0 000 1.6zm7.15-2.33a.8.8 0 100-1.6.8.8 0 000 1.6zm7.51-.49a.78.78 0 100-1.56.78.78 0 000 1.56zm7.39 1.41a.781.781 0 000-1.56.781.781 0 000 1.56zm6.8 3.21a.781.781 0 000-1.56.781.781 0 000 1.56zm5.79 4.77a.77.77 0 100-1.54.77.77 0 000 1.54zm4.42 6.09a.77.77 0 100-1.54.77.77 0 000 1.54zm2.77 6.97a.75.75 0 100-1.5.75.75 0 000 1.5zm6.94 7.98a1.261 1.261 0 000-2.52c-.7 0-1.26.57-1.26 1.26 0 .69.57 1.26 1.26 1.26zm-.78 7.48a1.261 1.261 0 000-2.52c-.7 0-1.26.57-1.26 1.26-.01.7.56 1.26 1.26 1.26zm-2.33 7.16a1.26 1.26 0 100-2.52 1.26 1.26 0 000 2.52zm-3.76 6.52a1.261 1.261 0 000-2.52c-.7 0-1.26.57-1.26 1.26-.01.69.56 1.26 1.26 1.26zm-5.04 5.59a1.261 1.261 0 000-2.52c-.7 0-1.26.57-1.26 1.26 0 .69.57 1.26 1.26 1.26zm-6.09 4.42a1.261 1.261 0 000-2.52 1.261 1.261 0 000 2.52zm-6.87 3.07a1.261 1.261 0 000-2.52 1.261 1.261 0 000 2.52zM18.8 91.2a1.261 1.261 0 000-2.52c-.7 0-1.26.57-1.26 1.26-.01.69.56 1.26 1.26 1.26zm-7.53.02a1.28 1.28 0 100-2.56 1.28 1.28 0 000 2.56zm-7.36-1.57c.71 0 1.28-.57 1.28-1.28 0-.71-.57-1.28-1.28-1.28-.71 0-1.28.57-1.28 1.28 0 .71.57 1.28 1.28 1.28zm0-68.42a1.33 1.33 0 10.001-2.659 1.33 1.33 0 00-.001 2.66zm7.36-1.59a1.31 1.31 0 100-2.62 1.31 1.31 0 000 2.62zm7.53 0a1.31 1.31 0 100-2.62 1.31 1.31 0 000 2.62zm7.36 1.57c.73 0 1.31-.59 1.31-1.31 0-.73-.59-1.31-1.31-1.31-.72 0-1.31.59-1.31 1.31 0 .72.58 1.31 1.31 1.31zm6.87 3.04c.72 0 1.3-.58 1.3-1.3 0-.72-.58-1.3-1.3-1.3-.72 0-1.3.58-1.3 1.3.01.72.59 1.3 1.3 1.3zm6.09 4.43c.72 0 1.3-.58 1.3-1.3 0-.72-.58-1.3-1.3-1.3-.72 0-1.3.58-1.3 1.3.01.72.59 1.3 1.3 1.3zm5.04 5.59c.72 0 1.3-.58 1.3-1.3 0-.72-.58-1.3-1.3-1.3-.72 0-1.3.58-1.3 1.3 0 .72.58 1.3 1.3 1.3zm3.76 6.5a1.28 1.28 0 100-2.56 1.28 1.28 0 000 2.56zm2.33 7.16a1.28 1.28 0 100-2.56 1.28 1.28 0 000 2.56zm6.78 8a1.799 1.799 0 100-3.6 1.799 1.799 0 100 3.6zm-.67 7.5a1.8 1.8 0 100-3.6 1.8 1.8 0 000 3.6zm-2 7.26a1.8 1.8 0 100-3.6 1.8 1.8 0 000 3.6zm-3.27 6.78a1.799 1.799 0 100-3.6c-1 0-1.8.8-1.8 1.8s.81 1.8 1.8 1.8zm-4.43 6.09c.99 0 1.8-.8 1.8-1.8s-.8-1.8-1.8-1.8-1.8.8-1.8 1.8.81 1.8 1.8 1.8zm-5.44 5.21a1.8 1.8 0 100-3.6 1.8 1.8 0 000 3.6zm-6.28 4.15c.99 0 1.8-.8 1.8-1.8s-.8-1.8-1.8-1.8c-.99 0-1.8.8-1.8 1.8s.8 1.8 1.8 1.8zm-6.93 2.95a1.799 1.799 0 100-3.6 1.799 1.799 0 100 3.6zm-7.34 1.68a1.799 1.799 0 100-3.6 1.799 1.799 0 100 3.6zm-7.52.34c.99 0 1.8-.8 1.8-1.8s-.8-1.8-1.8-1.8a1.799 1.799 0 100 3.6zm-7.46-1a1.81 1.81 0 100-3.62 1.81 1.81 0 000 3.62zm-7.16-2.32a1.81 1.81 0 10-1.81-1.81c-.01 1 .81 1.81 1.81 1.81zm0-77.19c1.03 0 1.86-.83 1.86-1.86 0-1.03-.83-1.86-1.86-1.86-1.03 0-1.86.83-1.86 1.86-.01 1.02.83 1.86 1.86 1.86zm7.16-2.34a1.85 1.85 0 100-3.7 1.85 1.85 0 000 3.7zm7.46-1.01a1.85 1.85 0 100-3.7 1.85 1.85 0 000 3.7zm7.52.33a1.85 1.85 0 100-3.7 1.85 1.85 0 000 3.7zm7.34 1.68a1.85 1.85 0 100-3.7 1.85 1.85 0 000 3.7zm6.93 2.94a1.83 1.83 0 10-.002-3.662 1.83 1.83 0 00.002 3.662zm6.28 4.15a1.83 1.83 0 10-.002-3.662 1.83 1.83 0 00.002 3.662zm5.44 5.18a1.81 1.81 0 100-3.62 1.81 1.81 0 000 3.62zm4.43 6.09a1.81 1.81 0 100-3.62 1.81 1.81 0 000 3.62zm3.27 6.79a1.81 1.81 0 10-1.81-1.81c-.01 1 .81 1.81 1.81 1.81zm2 7.25a1.81 1.81 0 100-3.62 1.81 1.81 0 000 3.62zm6.67 7.52a1.83 1.83 0 10-.002-3.662 1.83 1.83 0 00.002 3.662zm-.59 7.51a1.83 1.83 0 10-.002-3.662 1.83 1.83 0 00.002 3.662zm-1.75 7.33a1.83 1.83 0 10-.002-3.662 1.83 1.83 0 00.002 3.662zm-2.89 6.96a1.83 1.83 0 10-.002-3.662 1.83 1.83 0 00.002 3.662zm-3.93 6.44a1.85 1.85 0 100-3.7 1.85 1.85 0 000 3.7zm-4.89 5.72a1.85 1.85 0 100-3.7 1.85 1.85 0 000 3.7zm-5.73 4.89c1.02 0 1.85-.83 1.85-1.85s-.83-1.85-1.85-1.85-1.85.83-1.85 1.85c0 1.03.83 1.85 1.85 1.85zm-6.42 3.92a1.83 1.83 0 100-3.66 1.83 1.83 0 000 3.66zm-6.96 2.88a1.83 1.83 0 10-.002-3.662 1.83 1.83 0 00.002 3.662zm-7.33 1.76a1.83 1.83 0 10-.002-3.662 1.83 1.83 0 00.002 3.662zm-7.51.59a1.83 1.83 0 10-.002-3.662 1.83 1.83 0 00.002 3.662zm-7.5-.61a1.81 1.81 0 100-3.62 1.81 1.81 0 000 3.62zM.2 101.6a1.81 1.81 0 10.001-3.62A1.81 1.81 0 00.2 101.6zm0-91.42c.94 0 1.7-.76 1.7-1.7s-.76-1.7-1.7-1.7-1.7.76-1.7 1.7c.01.94.76 1.7 1.7 1.7zm7.33-1.74a1.71 1.71 0 100-3.42c-.95 0-1.71.77-1.71 1.71-.01.94.76 1.71 1.71 1.71zm7.5-.6a1.71 1.71 0 100-3.42 1.71 1.71 0 000 3.42zm7.51.61c.96 0 1.73-.77 1.73-1.73s-.77-1.73-1.73-1.73-1.73.77-1.73 1.73.78 1.73 1.73 1.73zm7.33 1.78c.96 0 1.75-.78 1.75-1.75 0-.96-.78-1.75-1.75-1.75s-1.75.78-1.75 1.75.78 1.75 1.75 1.75zm6.96 2.88c.96 0 1.75-.78 1.75-1.75 0-.96-.78-1.75-1.75-1.75s-1.75.78-1.75 1.75.78 1.75 1.75 1.75zm6.42 3.95c.97 0 1.76-.79 1.76-1.76s-.79-1.76-1.76-1.76-1.76.79-1.76 1.76.78 1.76 1.76 1.76zm5.73 4.91c.98 0 1.78-.8 1.78-1.78s-.8-1.78-1.78-1.78-1.78.8-1.78 1.78.79 1.78 1.78 1.78zm4.89 5.73c.98 0 1.78-.8 1.78-1.78s-.8-1.78-1.78-1.78-1.78.8-1.78 1.78.79 1.78 1.78 1.78zm3.93 6.44a1.799 1.799 0 100-3.6c-1 0-1.8.8-1.8 1.8.01.99.81 1.8 1.8 1.8zm2.89 6.97a1.81 1.81 0 10-1.81-1.81c-.01 1 .8 1.81 1.81 1.81zm1.75 7.33a1.81 1.81 0 100-3.619 1.81 1.81 0 000 3.62zm6.59 5.93c.13 0 .23-.1.23-.23s-.1-.23-.23-.23-.23.1-.23.23c0 .12.11.23.23.23zm-.52 7.53c.14 0 .25-.11.25-.25s-.11-.25-.25-.25-.25.11-.25.25.11.25.25.25zm-1.57 7.37a.25.25 0 100-.5.25.25 0 000 .5zm-2.57 7.1a.27.27 0 100-.54.27.27 0 000 .54zm-3.54 6.65a.27.27 0 100-.54.27.27 0 000 .54zm-4.43 6.09a.27.27 0 100-.54.27.27 0 000 .54zm-5.23 5.42a.27.27 0 100-.54.27.27 0 000 .54zm-5.94 4.64a.27.27 0 100-.54.27.27 0 000 .54zm-6.52 3.77a.27.27 0 100-.54.27.27 0 000 .54zm-6.99 2.82a.27.27 0 100-.54.27.27 0 000 .54zm-7.31 1.8c.14 0 .25-.11.25-.25s-.11-.25-.25-.25-.25.11-.25.25.11.25.25.25zm-7.49.79c.14 0 .25-.11.25-.25s-.11-.25-.25-.25-.25.11-.25.25.11.25.25.25zm-7.53-.28c.13 0 .23-.1.23-.23s-.1-.23-.23-.23-.23.1-.23.23.1.23.23.23zm-7.42-1.31c.13 0 .23-.1.23-.23s-.1-.23-.23-.23-.23.1-.23.23.1.23.23.23zm0-104.85a.17.17 0 100-.34.17.17 0 000 .34zM9.39.6a.17.17 0 100-.34.17.17 0 000 .34zm7.53-.27c.09 0 .17-.07.17-.17S17.01 0 16.92 0c-.09 0-.17.07-.17.17s.08.16.17.16zm7.49.81c.1 0 .18-.08.18-.18 0-.1-.08-.18-.18-.18-.1 0-.18.08-.18.18 0 .09.08.18.18.18zm7.31 1.82c.1 0 .18-.08.18-.18 0-.1-.08-.18-.18-.18-.1 0-.18.08-.18.18 0 .1.08.18.18.18zm6.99 2.82a.18.18 0 100-.36.18.18 0 000 .36zm6.52 3.79a.2.2 0 00.2-.2.2.2 0 00-.2-.2.2.2 0 00-.2.2c0 .11.09.2.2.2zm5.94 4.63a.2.2 0 00.2-.2.2.2 0 00-.2-.2.2.2 0 00-.2.2c0 .11.09.2.2.2zm5.23 5.44c.12 0 .22-.1.22-.22s-.1-.22-.22-.22-.22.1-.22.22.1.22.22.22zm4.43 6.09c.12 0 .22-.1.22-.22s-.1-.22-.22-.22-.22.1-.22.22c0 .13.1.22.22.22zm3.54 6.66a.22.22 0 100-.44.22.22 0 000 .44zm2.57 7.09c.13 0 .23-.1.23-.23s-.1-.23-.23-.23-.23.1-.23.23.1.23.23.23zm1.57 7.37c.13 0 .23-.1.23-.23s-.1-.23-.23-.23-.23.1-.23.23.1.23.23.23z"/></g><defs><clipPath id="clip0_96_1481"><path fill="#fff" transform="translate(-39)" d="M0 0h108.27v108.35H0z"/></clipPath></defs></svg>