<svg width="61" height="61" fill="none" xmlns="http://www.w3.org/2000/svg"><path d="M46.228 61.001c-1.23-.25-2.335-.72-3.163-1.726-.723-.879-1.113-1.885-1.114-3.007-.015-6.373-.033-12.747.006-19.12.011-2.025 1.019-3.547 2.888-4.344 1.82-.775 3.549-.458 5.047.85 1.077.94 1.535 2.184 1.584 3.536l2.32 1.03c-.008.007.04-.017.04-.04-.07-3.094.016-6.2-.263-9.276-.299-3.28-1.574-6.29-3.392-9.047-.097-.148-.34-.274-.52-.28-1.675-.044-3.06-.726-4.256-1.86-3.025-2.869-6.643-4.586-10.7-5.37-5.217-1.006-10.172-.166-14.87 2.302-1.773.932-3.285 2.21-4.777 3.52a5.337 5.337 0 01-3.47 1.366c-.462.012-.686.197-.903.585-1.754 3.13-2.615 6.534-3.173 10.038-.426 2.68-.367 5.376-.347 8.082l2.368-1.053c.049-1.35.507-2.595 1.584-3.535 1.498-1.306 3.228-1.626 5.047-.849 1.893.81 2.844 2.353 2.896 4.404.04 1.568.009 3.136.009 4.704 0 4.447-.078 8.898.028 13.341.067 2.845-1.186 5.182-4.317 5.746h-.953c-.036-.018-.069-.047-.106-.052-2.33-.3-4.057-2.235-4.187-4.5-.009-.16-.237-.388-.409-.443-2.086-.66-3.469-2.015-4.102-4.11-.095-.315-.23-.425-.56-.467C1.642 51.06.01 49.197.009 46.351a3644.38 3644.38 0 01-.003-13.992c.005-2.51.276-4.989.888-7.427.86-3.418 2.29-6.578 4.25-9.506.165-.247.24-.621.209-.922-.21-2.05.373-3.81 1.856-5.24 5.236-5.043 11.53-7.886 18.681-8.92.939-.135 1.883-.23 2.825-.344h3.574c.152.034.304.079.458.101 1.725.247 3.475.383 5.173.758 6.013 1.33 11.33 4.026 15.791 8.324 1.48 1.427 2.171 3.153 1.922 5.204-.058.476.05.826.306 1.204 2.35 3.484 3.906 7.293 4.595 11.443.197 1.188.314 2.39.466 3.586V47.3c-.02.034-.05.067-.058.103-.375 2.259-2.186 3.891-4.423 4.031-.352.022-.449.188-.54.486-.636 2.064-1.995 3.425-4.06 4.052-.35.106-.46.259-.485.605a4.684 4.684 0 01-1.022 2.61c-.83 1.06-1.96 1.556-3.233 1.813l-.95.001zM31.09 2.372c-6.777.084-12.523 1.709-17.76 5.042-1.763 1.121-3.449 2.368-4.811 3.961-1.7 1.987-.698 5.025 1.832 5.688 1.393.365 2.537-.115 3.598-1.044 1.101-.965 2.22-1.944 3.459-2.71 4.998-3.098 10.446-4.273 16.29-3.54 3.045.38 5.91 1.317 8.61 2.766 1.92 1.03 3.589 2.392 5.21 3.834 1.073.953 2.375 1.072 3.68.508 2.401-1.038 2.844-4.102.864-5.978-6.038-5.724-13.326-8.31-20.972-8.527zM16.681 46.704v-1.31c0-2.72.012-5.44-.006-8.159-.009-1.5-1.192-2.575-2.621-2.435-1.268.125-2.134 1.153-2.137 2.568-.006 4.168-.001 8.337-.001 12.507 0 2.085-.008 4.168.002 6.253.007 1.145.656 2.048 1.655 2.362 1.583.498 3.093-.642 3.102-2.377.018-3.136.006-6.273.006-9.409zm32.406.002c0-3.137.01-6.273-.003-9.41-.006-1.526-1.123-2.599-2.563-2.5-1.29.089-2.195 1.135-2.196 2.57-.005 6.094-.002 12.188-.002 18.284 0 .258-.007.517.015.773a2.372 2.372 0 001.7 2.08c1.572.455 3.036-.674 3.045-2.388.015-3.137.004-6.273.004-9.41zM6.641 17.518c-2.137 3.35-3.511 6.969-3.981 10.877-.561 4.663-.203 9.358-.255 14.04 0 .013.018.027.007.013l2.328-.623c-.016.034.013 0 .015-.036.007-.297.007-.595.013-.892.061-3.648-.19-7.305.355-10.938.475-3.173 1.264-6.253 2.553-9.195.268-.61.59-1.193.869-1.752L6.64 17.518zm45.862 1.473c.069.133.133.274.212.408 2.448 4.11 3.564 8.568 3.524 13.34-.024 2.839-.004 5.677-.004 8.516v.566l2.363.631c.005-.083.018-.197.018-.31 0-3.374.015-6.75-.006-10.124-.022-3.859-.806-7.562-2.4-11.079-.535-1.18-1.196-2.306-1.802-3.464l-1.905 1.516zM9.506 39.806c-1.364.5-2.306 1.68-2.33 3.074a215.818 215.818 0 00-.002 7.613c.023 1.426 1.03 2.682 2.332 3.07V39.807zm42.006.028V53.58c1.358-.487 2.3-1.693 2.32-3.117.04-2.517.04-5.037-.001-7.554-.024-1.428-1.02-2.676-2.319-3.075zM4.74 44.348c-1.362.031-2.387 1.099-2.349 2.419A2.32 2.32 0 004.74 49.03v-4.682zm51.516 4.706c1.44-.085 2.435-1.166 2.353-2.502-.078-1.257-1.154-2.258-2.353-2.168v4.67z" fill="#000"/><path d="M28.087 48.42l2.89-10.11c.234-.818.464-1.639.707-2.455.213-.716.656-1.086 1.247-1.063.567.022.973.394 1.152 1.099.672 2.65 1.336 5.303 2.004 7.954.038.15.088.298.14.47.68 0 1.335-.01 1.988.003.785.017 1.312.483 1.332 1.155.023.685-.525 1.205-1.33 1.22-.933.019-1.866.016-2.798.002-.763-.012-1.15-.326-1.346-1.09-.409-1.592-.806-3.187-1.246-4.935-.099.278-.16.423-.203.572-1.064 3.714-2.128 7.428-3.19 11.142-.017.057-.027.117-.043.173-.257.879-.657 1.281-1.273 1.281-.595 0-.988-.372-1.27-1.218-.609-1.823-1.223-3.645-1.814-5.473-.108-.334-.25-.48-.618-.458-.554.033-1.112.024-1.667.005-.771-.028-1.3-.53-1.293-1.199.005-.672.535-1.162 1.31-1.175.932-.017 1.865-.01 2.797-.002.752.008 1.112.272 1.363 1.001.352 1.026.69 2.058 1.034 3.087l.127.014zm2.497-43.827c2.237.288 4.477.554 6.709.873.836.12 1.258.706 1.131 1.387-.134.716-.736 1.08-1.59.918-2.878-.542-5.774-.79-8.698-.516-2.434.227-4.83.64-7.139 1.481-.241.088-.482.184-.73.25-.619.163-1.21-.114-1.427-.655-.245-.609-.023-1.271.622-1.535.86-.352 1.743-.66 2.638-.906a32.203 32.203 0 018.462-1.134l.022-.163zM41.02 8.952a1.174 1.174 0 01-1.16-1.18c.007-.634.556-1.177 1.184-1.17a1.192 1.192 0 011.157 1.195 1.164 1.164 0 01-1.18 1.155z" fill="#000"/></svg>