<svg width="195" height="195" fill="none" xmlns="http://www.w3.org/2000/svg"><path d="M108.203 97.626a.144.144 0 100-.289.145.145 0 100 .29zm-7.479 10.308c.08 0 .145-.065.145-.144a.145.145 0 00-.145-.145.145.145 0 000 .289zm-12.121-3.863a.217.217 0 100-.433.217.217 0 000 .433zm0-12.691a.278.278 0 00.272-.27.278.278 0 00-.272-.271.278.278 0 00-.27.27c0 .163.108.271.27.271zm12.121-3.971a.235.235 0 100-.47.235.235 0 000 .47zm18.317 12.293a2.221 2.221 0 10.001-4.442 2.221 2.221 0 00-.001 4.442zm-4.136 12.691a2.184 2.184 0 10-2.186-2.184c0 1.206.978 2.184 2.186 2.184zm-10.839 7.907a2.221 2.221 0 10.002-4.442 2.221 2.221 0 00-.002 4.442zm-13.403.072a2.277 2.277 0 002.276-2.274 2.277 2.277 0 00-2.276-2.275 2.277 2.277 0 00-2.276 2.275 2.289 2.289 0 002.276 2.274zm-10.839-7.798a2.366 2.366 0 10.002-4.732 2.366 2.366 0 00-.002 4.732zm-4.136-12.637a2.456 2.456 0 10.001-4.912 2.456 2.456 0 00-.001 4.912zm4.137-12.691a2.497 2.497 0 002.492-2.491 2.497 2.497 0 00-2.492-2.491 2.497 2.497 0 00-2.493 2.491 2.497 2.497 0 002.493 2.491zm10.838-7.87a2.492 2.492 0 10.001-4.984 2.492 2.492 0 00-.001 4.984zm13.403-.054a2.438 2.438 0 10.002-4.876 2.438 2.438 0 00-.002 4.876zm10.839 7.744a2.311 2.311 0 10-2.313-2.311 2.312 2.312 0 002.313 2.31zm14.975 14.117a3.707 3.707 0 003.703-3.7 3.708 3.708 0 00-3.703-3.702 3.707 3.707 0 00-3.704 3.701 3.707 3.707 0 003.704 3.701zm-2.8 13.214a3.707 3.707 0 003.703-3.701 3.707 3.707 0 00-3.703-3.701 3.707 3.707 0 00-3.703 3.701 3.707 3.707 0 003.703 3.701zm-7.948 10.921a3.707 3.707 0 003.703-3.7 3.707 3.707 0 00-3.703-3.701 3.707 3.707 0 00-3.704 3.701c0 2.058 1.662 3.7 3.704 3.7zm-11.724 6.77a3.707 3.707 0 003.703-3.701c0-2.04-1.662-3.7-3.703-3.7a3.706 3.706 0 00-3.703 3.7 3.707 3.707 0 003.703 3.701zm-13.439 1.408a3.707 3.707 0 003.703-3.701c0-2.039-1.662-3.7-3.703-3.7a3.707 3.707 0 00-3.704 3.7 3.707 3.707 0 003.704 3.701zm-12.862-4.206a3.669 3.669 0 003.667-3.665 3.669 3.669 0 00-3.667-3.664 3.668 3.668 0 00-3.667 3.664 3.669 3.669 0 003.667 3.665zm-10.043-9.044a3.666 3.666 0 10-3.667-3.665 3.666 3.666 0 003.666 3.665zm-5.51-12.348a3.666 3.666 0 003.667-3.665 3.666 3.666 0 00-3.667-3.664 3.666 3.666 0 00-3.667 3.664 3.666 3.666 0 003.667 3.665zm0-13.503a3.666 3.666 0 10-3.667-3.665 3.666 3.666 0 003.667 3.665zm5.51-12.348a3.668 3.668 0 003.666-3.664 3.668 3.668 0 00-3.666-3.665 3.668 3.668 0 00-3.667 3.665 3.668 3.668 0 003.666 3.665zm10.043-9.044a3.666 3.666 0 10-3.667-3.665 3.666 3.666 0 003.667 3.665zm12.862-4.17a3.666 3.666 0 10-3.667-3.665 3.666 3.666 0 003.666 3.665zm13.439 1.408a3.666 3.666 0 003.667-3.664 3.666 3.666 0 00-3.667-3.665 3.666 3.666 0 00-3.667 3.665 3.666 3.666 0 003.667 3.664zm11.724 6.788a3.707 3.707 0 003.703-3.701c0-2.04-1.662-3.7-3.703-3.7a3.707 3.707 0 00-3.704 3.7c0 2.04 1.662 3.7 3.704 3.7zm7.948 10.939a3.707 3.707 0 003.703-3.7 3.707 3.707 0 00-3.703-3.701 3.706 3.706 0 00-3.703 3.7 3.707 3.707 0 003.703 3.701zm13.638 12.637a3.124 3.124 0 10-3.125-3.123 3.124 3.124 0 003.125 3.123zM138.604 114a3.113 3.113 0 003.125-3.123 3.113 3.113 0 00-3.125-3.123 3.114 3.114 0 00-3.125 3.123 3.125 3.125 0 003.125 3.123zm-6.159 12.077a3.114 3.114 0 003.125-3.124 3.114 3.114 0 00-3.125-3.123 3.114 3.114 0 00-3.125 3.123 3.126 3.126 0 003.125 3.124zm-9.592 9.585a3.114 3.114 0 003.125-3.123 3.114 3.114 0 00-3.125-3.123 3.114 3.114 0 00-3.125 3.123 3.125 3.125 0 003.125 3.123zm-12.085 6.156a3.114 3.114 0 003.125-3.123 3.114 3.114 0 00-3.125-3.123 3.114 3.114 0 00-3.125 3.123 3.125 3.125 0 003.125 3.123zm-13.403 2.112a3.124 3.124 0 003.125-3.123c0-1.725-1.4-3.123-3.125-3.123a3.124 3.124 0 100 6.246zm-13.385-2.148a3.088 3.088 0 10-3.09-3.087 3.088 3.088 0 003.09 3.087zm-12.104-6.156a3.087 3.087 0 100-6.174 3.087 3.087 0 00-3.089 3.087 3.098 3.098 0 003.09 3.087zm-9.574-9.622a3.067 3.067 0 003.071-3.069 3.067 3.067 0 00-3.07-3.068 3.067 3.067 0 00-3.071 3.068 3.067 3.067 0 003.07 3.069zm-6.159-12.076a3.067 3.067 0 003.07-3.069 3.067 3.067 0 00-3.07-3.069 3.067 3.067 0 00-3.071 3.069 3.067 3.067 0 003.07 3.069zm-2.132-13.377a3.068 3.068 0 003.071-3.07 3.067 3.067 0 00-3.07-3.068 3.067 3.067 0 00-3.072 3.069 3.068 3.068 0 003.071 3.069zm2.132-13.431a3.029 3.029 0 003.034-3.033 3.029 3.029 0 00-3.034-3.033 3.029 3.029 0 00-3.035 3.033 3.029 3.029 0 003.035 3.033zm6.159-12.077a3.029 3.029 0 003.035-3.033 3.029 3.029 0 00-3.035-3.033 3.029 3.029 0 00-3.034 3.033c-.018 1.68 1.355 3.033 3.034 3.033zm9.574-9.586a3.029 3.029 0 003.035-3.032 3.029 3.029 0 00-3.035-3.033 3.029 3.029 0 00-3.034 3.032 3.04 3.04 0 003.034 3.033zm12.104-6.155a3.034 3.034 0 10-3.036-3.033 3.034 3.034 0 003.035 3.033zm13.385-2.077a3.067 3.067 0 003.07-3.069 3.067 3.067 0 00-3.07-3.068 3.067 3.067 0 00-3.071 3.069 3.067 3.067 0 003.07 3.068zm13.403 2.113a3.067 3.067 0 003.071-3.069 3.067 3.067 0 00-3.071-3.069 3.067 3.067 0 00-3.071 3.069 3.067 3.067 0 003.071 3.069zm12.085 6.155a3.067 3.067 0 003.071-3.068 3.067 3.067 0 00-3.071-3.07 3.067 3.067 0 00-3.071 3.07 3.067 3.067 0 003.071 3.068zm9.592 9.604a3.088 3.088 0 10-3.089-3.087 3.088 3.088 0 003.089 3.087zm6.159 12.095a3.086 3.086 0 100-6.174 3.087 3.087 0 00-3.089 3.087c-.018 1.697 1.373 3.087 3.089 3.087zm12.952 12.781a2.497 2.497 0 002.493-2.491 2.497 2.497 0 00-2.493-2.491 2.497 2.497 0 00-2.493 2.491 2.497 2.497 0 002.493 2.491zm-1.698 13.467a2.497 2.497 0 002.493-2.491 2.497 2.497 0 00-2.493-2.491 2.497 2.497 0 00-2.493 2.491 2.497 2.497 0 002.493 2.491zm-5.003 12.618a2.492 2.492 0 10-2.493-2.491 2.492 2.492 0 002.493 2.491zm-7.985 10.994a2.497 2.497 0 002.493-2.491 2.497 2.497 0 00-2.493-2.491 2.496 2.496 0 00-2.492 2.491 2.496 2.496 0 002.492 2.491zm-10.459 8.648a2.498 2.498 0 002.493-2.492 2.497 2.497 0 00-2.493-2.491 2.497 2.497 0 00-2.493 2.491 2.486 2.486 0 002.493 2.492zm-12.301 5.776a2.497 2.497 0 002.493-2.491 2.497 2.497 0 00-2.493-2.491 2.497 2.497 0 00-2.493 2.491 2.497 2.497 0 002.493 2.491zm-13.331 2.545a2.497 2.497 0 002.492-2.491 2.497 2.497 0 00-2.492-2.491 2.497 2.497 0 00-2.493 2.491 2.485 2.485 0 002.493 2.491zm-13.566-.848a2.497 2.497 0 002.492-2.491 2.498 2.498 0 00-2.492-2.492 2.498 2.498 0 00-2.493 2.492 2.497 2.497 0 002.493 2.491zm-12.916-4.188a2.497 2.497 0 002.493-2.491 2.498 2.498 0 00-2.493-2.492 2.498 2.498 0 00-2.493 2.492 2.497 2.497 0 002.493 2.491zm-11.471-7.311a2.456 2.456 0 100-4.913 2.456 2.456 0 000 4.913zm-9.303-9.911a2.456 2.456 0 10-2.456-2.455c0 1.356 1.1 2.455 2.456 2.455zm-6.539-11.896a2.456 2.456 0 10-2.456-2.455c0 1.356 1.1 2.455 2.456 2.455zm-3.378-13.16a2.44 2.44 0 002.439-2.437 2.439 2.439 0 00-4.877 0 2.439 2.439 0 002.438 2.437zm0-13.576a2.44 2.44 0 002.439-2.437 2.44 2.44 0 00-4.877 0 2.44 2.44 0 002.438 2.437zm3.378-13.16a2.44 2.44 0 002.439-2.437 2.44 2.44 0 00-2.439-2.437 2.428 2.428 0 00-2.438 2.437 2.428 2.428 0 002.438 2.437zm6.539-11.896a2.44 2.44 0 002.439-2.437 2.44 2.44 0 00-4.877 0 2.44 2.44 0 002.438 2.437zm9.303-9.893a2.44 2.44 0 002.439-2.437 2.44 2.44 0 00-2.439-2.437 2.428 2.428 0 00-2.438 2.437 2.428 2.428 0 002.438 2.437zm11.471-7.275a2.44 2.44 0 002.439-2.437 2.44 2.44 0 00-2.44-2.437 2.428 2.428 0 00-2.438 2.437 2.428 2.428 0 002.439 2.437zm12.916-4.187a2.44 2.44 0 002.438-2.438 2.44 2.44 0 00-4.877 0 2.44 2.44 0 002.439 2.437zm13.566-.85a2.44 2.44 0 002.438-2.436 2.44 2.44 0 00-2.438-2.437 2.428 2.428 0 00-2.439 2.437 2.44 2.44 0 002.439 2.437zm13.331 2.564a2.455 2.455 0 100-4.91 2.456 2.456 0 100 4.91zm12.301 5.776a2.456 2.456 0 10.002-4.911 2.456 2.456 0 00-.002 4.912zm10.459 8.648a2.456 2.456 0 10.002-4.912 2.456 2.456 0 00-.002 4.912zm7.985 10.994a2.456 2.456 0 100-4.912 2.456 2.456 0 000 4.912zm5.003 12.654a2.492 2.492 0 10-2.493-2.49 2.493 2.493 0 002.493 2.49zm12.537 12.872a1.896 1.896 0 100-3.792 1.896 1.896 0 000 3.792zm-1.427 13.521a1.896 1.896 0 100-3.792 1.896 1.896 0 000 3.792zm-4.191 12.907a1.896 1.896 0 100-3.792 1.896 1.896 0 000 3.792zm-6.792 11.77a1.896 1.896 0 100-3.792 1.896 1.896 0 000 3.792zm-9.105 10.091a1.896 1.896 0 10.003-3.791 1.896 1.896 0 00-.003 3.791zm-11 7.997a1.895 1.895 0 100-3.791 1.896 1.896 0 100 3.791zm-12.41 5.524a1.895 1.895 0 100-3.791 1.896 1.896 0 100 3.791zm-13.313 2.816a1.895 1.895 0 100-3.791 1.896 1.896 0 100 3.791zm-13.584-.036c1.03 0 1.86-.83 1.86-1.859a1.857 1.857 0 00-1.86-1.859c-1.03 0-1.861.83-1.861 1.859s.83 1.859 1.86 1.859zm-13.295-2.816c1.03 0 1.86-.83 1.86-1.859s-.83-1.86-1.86-1.86c-1.03 0-1.861.831-1.861 1.86 0 1.029.83 1.859 1.86 1.859zm-12.428-5.524a1.86 1.86 0 10.002-3.72 1.86 1.86 0 00-.002 3.72zm-11.001-7.979c1.03 0 1.86-.83 1.86-1.859s-.83-1.86-1.86-1.86c-1.03 0-1.861.831-1.861 1.86 0 1.029.83 1.859 1.86 1.859zm-9.087-10.127a1.819 1.819 0 001.825-1.823 1.82 1.82 0 00-1.825-1.824 1.82 1.82 0 00-1.824 1.824c-.018.992.813 1.823 1.824 1.823zm-6.81-11.788a1.824 1.824 0 100-3.649 1.824 1.824 0 000 3.649zm-4.191-12.908a1.824 1.824 0 10.002-3.647 1.824 1.824 0 00-.002 3.647zm-1.427-13.521a1.824 1.824 0 10.002-3.647 1.824 1.824 0 00-.002 3.647zm1.427-13.503a1.824 1.824 0 10.002-3.648 1.824 1.824 0 00-.002 3.648zm4.191-12.943c.994 0 1.807-.813 1.807-1.806 0-.992-.813-1.805-1.807-1.805-.993 0-1.806.813-1.806 1.805.018.993.813 1.806 1.806 1.806zm6.81-11.77a1.806 1.806 0 10.002-3.612 1.806 1.806 0 00-.002 3.612zm9.087-10.091c.993 0 1.806-.813 1.806-1.806a1.81 1.81 0 00-1.806-1.805c-.994 0-1.807.812-1.807 1.805 0 .993.813 1.806 1.807 1.806zM64.85 43a1.81 1.81 0 001.806-1.805 1.81 1.81 0 00-1.806-1.805c-.994 0-1.807.812-1.807 1.805 0 .993.813 1.805 1.807 1.805zm12.428-5.524a1.81 1.81 0 001.806-1.805 1.81 1.81 0 00-1.806-1.805c-.994 0-1.807.812-1.807 1.805a1.81 1.81 0 001.806 1.805zm13.295-2.798a1.824 1.824 0 100-3.648 1.824 1.824 0 000 3.648zm13.584 0a1.824 1.824 0 100-3.647 1.824 1.824 0 000 3.647zm13.313 2.834a1.819 1.819 0 001.824-1.823 1.82 1.82 0 00-1.824-1.823 1.82 1.82 0 00-1.825 1.823c-.018.993.813 1.823 1.825 1.823zm12.41 5.507a1.824 1.824 0 100-3.648 1.824 1.824 0 000 3.648zm11 8.033c1.03 0 1.861-.83 1.861-1.86a1.857 1.857 0 00-1.861-1.859c-1.029 0-1.86.83-1.86 1.86 0 1.029.831 1.859 1.86 1.859zm9.105 10.091c1.029 0 1.86-.83 1.86-1.86a1.858 1.858 0 00-1.86-1.859c-1.03 0-1.861.83-1.861 1.86-.018 1.029.831 1.859 1.861 1.859zm6.792 11.77c1.029 0 1.86-.83 1.86-1.86a1.858 1.858 0 00-1.86-1.859c-1.03 0-1.861.83-1.861 1.86 0 1.029.831 1.859 1.861 1.859zm4.191 12.925c1.029 0 1.86-.83 1.86-1.859s-.831-1.86-1.86-1.86c-1.03 0-1.861.831-1.861 1.86 0 1.03.849 1.86 1.861 1.86zm12.265 12.908a1.264 1.264 0 100-2.528 1.264 1.264 0 000 2.528zm-1.21 13.539a1.264 1.264 0 100-2.528 1.264 1.264 0 000 2.528zm-3.631 13.106c.704 0 1.264-.56 1.264-1.264s-.56-1.264-1.264-1.264c-.705 0-1.265.56-1.265 1.264a1.28 1.28 0 001.265 1.264zm-5.889 12.239c.705 0 1.264-.56 1.264-1.264s-.559-1.263-1.264-1.263c-.704 0-1.264.559-1.264 1.263 0 .704.56 1.264 1.264 1.264zm-8.002 10.994a1.264 1.264 0 100-2.528 1.264 1.264 0 000 2.528zm-9.827 9.405a1.264 1.264 0 100-2.528 1.264 1.264 0 000 2.528zm-11.362 7.492a1.264 1.264 0 100-2.528 1.264 1.264 0 000 2.528zm-12.501 5.325c.705 0 1.265-.559 1.265-1.263 0-.704-.56-1.264-1.265-1.264-.704 0-1.264.56-1.264 1.264s.56 1.263 1.264 1.263zm-13.258 3.033a1.264 1.264 0 100-2.528 1.264 1.264 0 000 2.528zm-13.584.613a1.263 1.263 0 10.002-2.527 1.263 1.263 0 00-.002 2.527zm-13.476-1.823c.704 0 1.264-.559 1.264-1.263 0-.704-.56-1.264-1.264-1.264-.705 0-1.265.56-1.265 1.264 0 .686.56 1.263 1.265 1.263zm-12.952-4.242a1.229 1.229 0 000-2.455 1.229 1.229 0 000 2.455zm-11.976-6.444a1.23 1.23 0 001.228-1.228 1.23 1.23 0 00-2.457 0c0 .686.56 1.228 1.229 1.228zm-10.622-8.467a1.229 1.229 0 000-2.455 1.23 1.23 0 00-1.228 1.228c-.018.668.542 1.227 1.228 1.227zm-8.96-10.236a1.229 1.229 0 10-1.228-1.227c0 .668.56 1.227 1.228 1.227zm-6.973-11.661a1.23 1.23 0 001.229-1.228 1.23 1.23 0 00-2.457 0 1.23 1.23 0 001.229 1.228zm-4.768-12.763a1.21 1.21 0 100-2.42 1.21 1.21 0 000 2.42zm-2.439-13.359a1.21 1.21 0 10.002-2.419 1.21 1.21 0 00-.002 2.419zm0-13.593a1.21 1.21 0 10.001-2.42 1.21 1.21 0 000 2.42zm2.439-13.395a1.21 1.21 0 100-2.42 1.21 1.21 0 000 2.42zM29.01 65.8a1.21 1.21 0 10.001-2.42 1.21 1.21 0 000 2.42zm6.973-11.68a1.21 1.21 0 10.001-2.42 1.21 1.21 0 000 2.42zm8.96-10.235a1.21 1.21 0 100-2.42 1.21 1.21 0 000 2.42zm10.622-8.467a1.21 1.21 0 100-2.42 1.21 1.21 0 000 2.42zm11.976-6.444a1.21 1.21 0 10-1.21-1.21c.018.668.56 1.21 1.21 1.21zm12.952-4.206a1.21 1.21 0 100-2.42 1.21 1.21 0 000 2.42zm13.476-1.823a1.21 1.21 0 100-2.42 1.21 1.21 0 000 2.42zm13.584.613a1.21 1.21 0 100-2.42 1.21 1.21 0 000 2.42zm13.258 3.033a1.21 1.21 0 10.002-2.42 1.21 1.21 0 00-.002 2.42zm12.501 5.361a1.23 1.23 0 001.228-1.227 1.23 1.23 0 00-2.457 0c0 .668.56 1.227 1.229 1.227zm11.362 7.492a1.23 1.23 0 001.228-1.227 1.23 1.23 0 00-2.456 0 1.23 1.23 0 001.228 1.227zm9.827 9.387a1.23 1.23 0 001.228-1.227 1.23 1.23 0 00-1.228-1.228c-.669 0-1.229.56-1.229 1.228a1.23 1.23 0 001.229 1.227zm8.002 10.994a1.23 1.23 0 001.228-1.228 1.23 1.23 0 00-2.456 0c-.018.686.542 1.228 1.228 1.228zm5.889 12.275c.704 0 1.264-.56 1.264-1.263 0-.704-.56-1.264-1.264-1.264-.705 0-1.265.56-1.265 1.264s.578 1.263 1.265 1.263zm3.631 13.106a1.264 1.264 0 100-2.528 1.264 1.264 0 000 2.528zm12.048 12.944a.668.668 0 10.002-1.336.668.668 0 00-.002 1.336zm-1.065 13.557a.667.667 0 00.668-.668.667.667 0 00-.668-.668.667.667 0 00-.669.668c0 .361.307.668.669.668zm-3.18 13.178a.632.632 0 10.001-1.265.632.632 0 00-.001 1.265zm-5.202 12.601a.667.667 0 00.668-.668.667.667 0 00-.668-.668.667.667 0 00-.668.668c0 .361.307.668.668.668zm-7.117 11.553a.632.632 0 100-1.264.632.632 0 000 1.264zm-8.834 10.38a.667.667 0 100-1.336.667.667 0 00-.668.668c.018.361.307.668.668.668zm-10.332 8.791a.631.631 0 10.002-1.262.631.631 0 00-.002 1.262zm-11.615 7.131a.667.667 0 00.668-.668.656.656 0 00-.668-.668.667.667 0 100 1.336zm-12.573 5.181a.633.633 0 100-1.266.633.633 0 000 1.266zm-13.222 3.214a.667.667 0 00.668-.668.667.667 0 00-.668-.668.666.666 0 00-.669.668c0 .361.307.668.669.668zM97.365 184.8a.668.668 0 100-1.336.668.668 0 000 1.336zm-13.566-1.101a.632.632 0 100-1.264.632.632 0 000 1.264zm-13.223-3.177a.632.632 0 100-1.264.632.632 0 000 1.264zm-12.573-5.199a.64.64 0 00.633-.632.64.64 0 00-.633-.632.64.64 0 00-.632.632c0 .343.29.632.632.632zm-11.597-7.149a.595.595 0 10.002-1.19.595.595 0 00-.002 1.19zm-10.35-8.827a.601.601 0 00.596-.596.601.601 0 00-.596-.596.601.601 0 00-.596.596.6.6 0 00.596.596zm-8.834-10.326a.601.601 0 00.596-.596.6.6 0 00-.596-.595.6.6 0 00-.596.595c0 .325.271.596.596.596zm-7.117-11.608a.6.6 0 00.596-.595.601.601 0 00-.596-.596.601.601 0 00-.596.596c0 .343.271.595.596.595zm-5.202-12.546a.601.601 0 00.596-.596c0-.324-.271-.613-.596-.613a.601.601 0 00-.596.595c0 .325.27.614.596.614zm-3.18-13.232a.601.601 0 00.597-.596.6.6 0 00-.597-.595.6.6 0 00-.596.595c0 .325.271.596.596.596zm-1.065-13.557a.601.601 0 00.596-.596.601.601 0 00-.596-.596.601.601 0 00-.596.596.6.6 0 00.596.596zm1.065-13.558a.6.6 0 00.597-.595.601.601 0 00-.597-.596.601.601 0 00-.596.596.59.59 0 00.596.596zm3.18-13.232a.578.578 0 100-1.155.578.578 0 000 1.155zm5.202-12.564a.582.582 0 00.578-.578.582.582 0 00-.578-.577.57.57 0 00-.578.577c.018.307.271.578.578.578zm7.117-11.589a.578.578 0 100-1.156.578.578 0 000 1.156zm8.834-10.345a.582.582 0 00.578-.577.582.582 0 00-.578-.578.57.57 0 00-.578.578c0 .307.27.578.578.578zm10.35-8.827a.578.578 0 100-1.156.578.578 0 000 1.156zm11.597-7.113a.582.582 0 00.578-.577.582.582 0 00-.578-.578.582.582 0 00-.578.578c0 .325.271.577.578.577zm12.573-5.199a.578.578 0 100-1.156.578.578 0 000 1.156zm13.223-3.159a.6.6 0 00.596-.596.601.601 0 00-.596-.596.601.601 0 00-.597.596.59.59 0 00.597.596zm13.566-1.065a.6.6 0 00.596-.596.601.601 0 00-.596-.595.601.601 0 00-.597.595c0 .325.271.596.597.596zm13.566 1.065a.6.6 0 00.596-.596.601.601 0 00-.596-.596.601.601 0 00-.597.596.59.59 0 00.597.596zm13.222 3.178a.6.6 0 00.596-.596.6.6 0 00-.596-.596.601.601 0 00-.596.596.6.6 0 00.596.595zm12.573 5.198a.6.6 0 00.596-.595.601.601 0 00-.596-.596.601.601 0 00-.596.596.59.59 0 00.596.595zm11.615 7.112a.6.6 0 00.596-.595.601.601 0 00-.596-.596.601.601 0 00-.596.596c-.018.325.253.596.596.596zm10.332 8.828a.6.6 0 00.597-.595.601.601 0 00-.597-.596.601.601 0 00-.596.596.6.6 0 00.596.595zm8.834 10.344a.6.6 0 00.596-.595.601.601 0 00-.596-.596.601.601 0 00-.596.596.6.6 0 00.596.595zm7.117 11.626a.632.632 0 100-1.264.632.632 0 000 1.264zm5.202 12.564a.632.632 0 10.002-1.264.632.632 0 00-.002 1.264zm3.18 13.215a.632.632 0 100-1.264.632.632 0 000 1.264zm11.904 13.015a.09.09 0 000-.18.09.09 0 00-.091.09c0 .05.041.09.091.09zm-.94 13.576c.05 0 .091-.041.091-.091a.091.091 0 00-.091-.09.09.09 0 000 .181zm-2.836 13.286a.09.09 0 10.001-.181.09.09 0 00-.001.181zm-4.66 12.781c.054 0 .09-.036.09-.09s-.036-.091-.09-.091-.09.037-.09.091.054.09.09.09zm-6.377 12.023a.09.09 0 10.001-.181.09.09 0 00-.001.181zm-8.002 10.994a.09.09 0 000-.181.09.09 0 000 .181zm-9.466 9.784c.055 0 .091-.036.091-.09 0-.055-.036-.091-.091-.091-.054 0-.09.036-.09.091 0 .054.054.09.09.09zm-10.711 8.376a.09.09 0 00.09-.09.09.09 0 00-.181 0c0 .05.041.09.091.09zm-11.796 6.806a.09.09 0 10-.001-.181.09.09 0 00.001.181zm-12.609 5.09c.054 0 .09-.036.09-.09s-.036-.09-.09-.09-.09.036-.09.09.036.09.09.09zm-13.205 3.286c.05 0 .091-.041.091-.09a.091.091 0 00-.091-.091.091.091 0 00-.09.091c0 .049.041.09.09.09zM100.779 195a.09.09 0 00.09-.09.091.091 0 00-.09-.091.09.09 0 100 .181zm-13.602-.487c.054 0 .09-.037.09-.091s-.036-.09-.09-.09c-.055 0-.09.036-.09.09s.035.091.09.091zm-13.404-2.347c.054 0 .09-.036.09-.09 0-.055-.036-.091-.09-.091s-.09.036-.09.091c0 .036.036.09.09.09zm-12.952-4.206c.054 0 .09-.036.09-.091 0-.054-.036-.09-.09-.09s-.09.036-.09.09c0 .055.054.091.09.091zm-12.229-5.994c.036 0 .054-.018.054-.054 0-.036-.018-.054-.054-.054-.036 0-.054.018-.054.054 0 .018.018.054.054.054zm-11.272-7.6c.036 0 .054-.018.054-.054 0-.036-.018-.054-.054-.054-.036 0-.054.018-.054.054-.018.018.018.054.054.054zm-10.116-9.098c.036 0 .055-.018.055-.054 0-.036-.019-.054-.055-.054-.036 0-.054.018-.054.054-.018.018.018.054.054.054zm-8.761-10.434c.03 0 .054-.024.054-.054a.055.055 0 00-.054-.055.055.055 0 00-.054.055c0 .03.024.054.054.054zm-7.207-11.517c.036 0 .054-.018.054-.055 0-.036-.018-.054-.054-.054-.036 0-.054.018-.054.054 0 .018.018.055.054.055zm-5.528-12.439c.036 0 .054-.018.054-.054 0-.036-.018-.054-.054-.054-.036 0-.054.018-.054.054 0 .036.018.054.054.054zM1.95 117.809a.054.054 0 100-.108.054.054 0 100 .108zM.054 104.342c.036 0 .054-.018.054-.054 0-.037-.018-.055-.054-.055-.036-.018-.054.018-.054.055 0 .036.018.054.054.054zm0-13.594c.036 0 .054-.018.054-.054 0-.036-.018-.054-.054-.054-.036-.018-.054.018-.054.036 0 .036.018.072.054.072zM1.95 77.281c.037 0 .055-.018.055-.054 0-.036-.018-.054-.054-.054-.036 0-.054.018-.054.054 0 .018.018.054.054.054zm3.758-13.087a.054.054 0 100-.109.054.054 0 000 .109zm5.528-12.42a.054.054 0 100-.109.054.054 0 000 .109zm7.207-11.536a.054.054 0 100-.108.054.054 0 000 .108zm8.761-10.416c.036 0 .055-.018.055-.054 0-.036-.019-.054-.055-.054-.036 0-.054.018-.054.054-.018.036.018.054.054.054zm10.116-9.098a.054.054 0 100-.109.054.054 0 000 .109zm11.272-7.6a.054.054 0 100-.108.054.054 0 000 .108zm12.229-5.957c.036 0 .054-.018.054-.054 0-.036-.018-.054-.054-.054-.036 0-.054.018-.054.054 0 .018.018.054.054.054zm12.952-4.225a.054.054 0 100-.108.054.054 0 000 .108zM87.177.596c.036 0 .054-.018.054-.054 0-.037-.018-.055-.054-.055-.037 0-.055.018-.055.055-.018.018.018.054.055.054zm13.602-.47c.036 0 .054-.018.054-.054 0-.036-.036-.072-.054-.072-.037 0-.055.018-.055.054 0 .036.018.072.055.072zm13.529 1.408c.037 0 .055-.018.055-.054 0-.036-.018-.054-.055-.054-.036 0-.054.018-.054.054 0 .036.018.054.054.054zm13.205 3.304c.036 0 .054-.018.054-.054 0-.036-.018-.054-.054-.054-.036 0-.054.018-.054.054 0 .018.018.054.054.054zm12.609 5.091c.036 0 .054-.018.054-.054 0-.037-.018-.055-.054-.055-.036 0-.054.018-.054.055 0 .018.036.054.054.054zm11.796 6.805c.036 0 .054-.018.054-.054 0-.036-.018-.054-.054-.054-.037 0-.055.018-.055.054-.018.018.018.054.055.054zm10.711 8.358c.037 0 .055-.018.055-.054 0-.036-.018-.054-.055-.054-.036 0-.054.018-.054.054 0 .036.036.054.054.054zm9.466 9.785c.036 0 .054-.018.054-.055 0-.036-.018-.054-.054-.054-.036 0-.054.018-.054.054-.018.037.018.055.054.055zm8.002 11.012c.036 0 .054-.019.054-.055 0-.036-.018-.054-.054-.054-.036 0-.054.018-.054.054-.018.018.018.055.054.055zm6.377 12.041c.054 0 .09-.036.09-.09 0-.055-.036-.09-.09-.09s-.09.035-.09.09c0 .036.054.09.09.09zm4.66 12.78a.09.09 0 00.091-.09.09.09 0 00-.091-.09.09.09 0 00-.09.09c0 .05.04.09.09.09zm2.836 13.287c.055 0 .091-.036.091-.09s-.036-.09-.091-.09c-.054 0-.09.036-.09.09s.036.09.09.09z" fill="#000" fill-opacity=".5"/></svg>