<svg width="87" height="118" fill="none" xmlns="http://www.w3.org/2000/svg"><path d="M20.08 72.71c.03 4.6.07 9.19.11 13.79A85.825 85.825 0 018.47 45.66c-.48-15.97 3.98-29.57 9.76-44.16.56-1.43-1.51-2-2.29-.96C6.51 13.13 3.1 31.15 3.47 46.58c.35 14.82 4.3 29.26 11.6 42.09-4.63-3.02-8.73-6.86-11.93-11.36-.84-1.18-2.71-.15-1.98 1.16 4.65 8.31 11.34 14.71 20.18 18.44 1.49.63 3.32-.07 3.32-1.91.01-7.43.01-14.87 0-22.3.01-2.95-4.6-2.95-4.58.01zm66.52 41.58c-2.15-8.05-5.09-15.78-8.7-23.29-1.29-2.68-5.28-.34-3.99 2.33 2.35 4.87 4.34 9.86 6.08 14.95-12.77-8.88-23.18-20.69-30.47-34.44-7.49-14.13-9.72-28.63-12.15-44.19-.1-.63-1.17-.63-1.27 0-2.51 15.55 2.69 32.63 9.57 46.44 6.14 12.32 14.83 23.12 25.38 31.83-4.81-1.89-9.57-3.91-14.47-5.78-1.28-.49-1.77 1.34-.86 2.04 8.12 6.18 18.44 9.98 28.14 12.85 1.64.49 3.17-1.13 2.74-2.74z" fill="#3F3E3E" fill-opacity=".5"/></svg>