<svg width="145" height="344" fill="none" xmlns="http://www.w3.org/2000/svg"><path d="M144.693 192.098a.232.232 0 00.232-.239.233.233 0 10-.465 0c0 .135.102.239.233.239zm-6.083-6.546a.233.233 0 00.233-.239.233.233 0 00-.233-.239.233.233 0 00-.233.239c0 .135.102.239.233.239zm-5.499-7.2c.06 0 .104-.046.104-.107a.103.103 0 00-.104-.107.103.103 0 00-.104.107c0 .061.059.107.104.107zm-4.848-7.41a.233.233 0 00.233-.239.233.233 0 10-.466 0c0 .134.102.239.233.239zm-4.174-8.095c.06 0 .105-.046.105-.108a.104.104 0 00-.105-.107.103.103 0 00-.104.107c.015.062.06.108.104.108zm-3.451-8.223c.102 0 .189-.09.189-.194a.195.195 0 00-.189-.195.199.199 0 00-.204.195c0 .104.087.194.204.194zm-2.719-8.688c.06 0 .105-.046.105-.107a.104.104 0 00-.105-.107.103.103 0 00-.104.107c0 .061.045.107.104.107zm-1.965-8.896c.015 0 .031-.016.031-.032 0-.015-.016-.031-.031-.031-.016 0-.031.016-.031.031 0 .016.015.032.031.032zm4.686-53.39c.015 0 .031-.015.031-.031s-.016-.032-.031-.032c-.016 0-.031.016-.031.032-.015.016 0 .032.031.032zm21.186 119.548a.396.396 0 00.393-.403.396.396 0 00-.393-.403.397.397 0 00-.393.403c0 .224.175.403.393.403zm-6.418-6.172a.429.429 0 00.422-.434.428.428 0 00-.422-.433.428.428 0 00-.422.433c0 .239.189.434.422.434zm-5.908-6.846c.16 0 .291-.135.291-.299a.296.296 0 00-.291-.299.296.296 0 00-.291.299c0 .164.131.299.291.299zm-5.355-7.182c.16 0 .291-.134.291-.299a.296.296 0 00-.291-.299.296.296 0 00-.291.299c0 .165.146.299.291.299zm-4.759-7.5a.397.397 0 00.393-.403.397.397 0 00-.393-.404.397.397 0 00-.393.404c0 .224.175.403.393.403zm-4.133-8.053c.175 0 .32-.149.32-.328a.318.318 0 00-.32-.329.327.327 0 00-.32.329c-.015.179.131.328.32.328zm-3.507-8.336a.296.296 0 00.292-.298.296.296 0 00-.292-.299.296.296 0 00-.291.299c0 .164.131.298.291.298zm-2.808-8.621a.233.233 0 00.233-.239.233.233 0 10-.466 0c0 .134.102.239.233.239zm-2.139-8.787a.233.233 0 00.233-.239.233.233 0 10-.466 0c0 .134.102.239.233.239zm-1.441-8.944c.102 0 .189-.09.189-.195a.195.195 0 00-.189-.194.195.195 0 00-.189.194c0 .105.087.195.189.195zm-.71-9.076a.135.135 0 00.134-.138.136.136 0 00-.134-.138.136.136 0 00-.134.138c0 .077.06.138.134.138zm0-9.077a.103.103 0 00.104-.107.103.103 0 00-.104-.107.104.104 0 00-.105.107c0 .061.045.107.105.107zm.712-9.08c.016 0 .031-.016.031-.032s-.015-.032-.031-.032c-.015 0-.031.016-.031.032s.016.032.031.032zm1.44-8.921c.016 0 .031-.016.031-.032s-.015-.032-.031-.032c-.015 0-.03.016-.03.032s.015.032.03.032zm2.14-8.769c.016 0 .031-.016.031-.032s-.015-.032-.031-.032c-.015 0-.031.017-.031.032-.015.016 0 .032.031.032zm2.808-8.574c.015 0 .031-.016.031-.032s-.016-.032-.031-.032c-.016 0-.031.016-.031.032s.015.032.031.032zm17.754-31.06c.016 0 .031-.015.031-.031s-.015-.032-.031-.032c-.015 0-.031.016-.031.032s.016.032.031.032zm9.589 166.096a.725.725 0 00.713-.732.725.725 0 00-.713-.732.725.725 0 00-.714.732c0 .403.306.732.714.732zm-6.681-6.005a.63.63 0 00.626-.643.63.63 0 00-.626-.642.639.639 0 00-.626.642.64.64 0 00.626.643zm-6.227-6.49a.528.528 0 00.523-.538.528.528 0 00-.523-.537.529.529 0 00-.524.537c0 .299.233.538.524.538zm-5.749-7.05c.175 0 .32-.149.32-.343a.327.327 0 00-.32-.329c-.189 0-.32.15-.32.329 0 .179.146.343.32.343zm-5.224-7.215a.397.397 0 00.393-.403.397.397 0 00-.393-.404.397.397 0 00-.393.404c0 .224.175.403.393.403zm-4.687-7.722c.189 0 .32-.15.32-.329a.327.327 0 00-.32-.329c-.174 0-.32.15-.32.329a.31.31 0 00.32.329zm-4.117-7.995a.33.33 0 00.334-.328.33.33 0 00-.334-.329.328.328 0 00-.321.329c-.014.179.146.328.321.328zm-3.522-8.319c.16 0 .291-.135.291-.299a.296.296 0 00-.291-.299.296.296 0 00-.291.299c0 .164.131.299.291.299zm-2.91-8.498c.175 0 .32-.149.32-.329a.327.327 0 00-.32-.328c-.19 0-.32.149-.32.328 0 .18.145.329.32.329zm-2.285-8.745c.174 0 .32-.149.32-.328 0-.18-.146-.344-.32-.344-.19 0-.32.149-.32.344 0 .179.145.328.32.328zm-1.63-8.92c.16 0 .29-.135.29-.299a.296.296 0 00-.29-.299.296.296 0 00-.291.299c0 .164.13.299.29.299zm-.989-8.972c.16 0 .29-.134.29-.299a.295.295 0 00-.29-.298.295.295 0 00-.292.298c0 .165.131.299.291.299zm-.335-9.146c.117 0 .204-.09.204-.195a.199.199 0 00-.204-.194c-.102 0-.19.09-.19.194 0 .105.088.195.19.195zm.338-9.092a.136.136 0 00.134-.138.135.135 0 00-.134-.138.135.135 0 00-.134.138c0 .076.06.138.134.138zm.989-8.992a.135.135 0 00.134-.138.136.136 0 00-.134-.138.136.136 0 00-.134.138c0 .077.06.138.134.138zm1.628-8.921c.06 0 .105-.046.105-.108a.103.103 0 00-.104-.107.103.103 0 00-.105.107c0 .062.06.108.105.108zm2.285-8.802c.015 0 .031-.016.031-.031 0-.016-.016-.032-.031-.032-.016 0-.031.016-.031.032s.015.031.03.031zm2.911-8.532c.015 0 .031-.016.031-.032s-.016-.032-.031-.032c-.016 0-.031.016-.031.032s.015.032.031.032zm3.522-8.293c.016 0 .031-.016.031-.032s-.015-.032-.031-.032c-.015 0-.031.016-.031.032s.016.032.031.032zm4.118-7.988c.015 0 .031-.016.031-.032s-.016-.032-.031-.032c-.016 0-.031.016-.031.032s.015.032.031.032zm4.686-7.646c.015 0 .031-.016.031-.032s-.016-.032-.031-.032c-.016 0-.031.016-.031.032s.015.032.031.032zm5.224-7.283c.015 0 .031-.016.031-.032s-.016-.032-.031-.032c-.016 0-.031.016-.031.032s.015.032.031.032zm5.749-6.852c.015 0 .031-.016.031-.032s-.016-.032-.031-.032c-.016 0-.031.016-.031.032s.015.032.031.032zm6.227-6.398c.016 0 .031-.017.031-.033s-.015-.032-.031-.032c-.015 0-.03.016-.03.032s.015.032.03.032zm6.679-5.901c.016 0 .031-.016.031-.032s-.015-.032-.031-.032c-.015 0-.031.016-.031.032s.016.032.031.032zm4.612 206.118c.699 0 1.281-.582 1.281-1.314 0-.718-.568-1.315-1.281-1.315-.698 0-1.28.582-1.28 1.315.014.732.582 1.314 1.28 1.314zm-7.246-4.843c.873 0 1.571-.717 1.571-1.613 0-.882-.698-1.614-1.571-1.614-.859 0-1.572.718-1.572 1.614 0 .896.713 1.613 1.572 1.613zm-6.884-6.375a.856.856 0 00.844-.867.855.855 0 00-.844-.866.855.855 0 00-.844.866c0 .478.378.867.844.867zm-6.49-6.111a.856.856 0 00.844-.866.857.857 0 00-.844-.867.856.856 0 00-.844.867c0 .478.378.866.844.866zm-6.068-6.721a.693.693 0 00.684-.702.692.692 0 00-.684-.702.692.692 0 00-.684.702c0 .388.306.702.684.702zm-5.603-7.037a.638.638 0 00.625-.642.638.638 0 00-.625-.642.629.629 0 00-.626.642c0 .359.276.642.626.642zm-5.137-7.351a.63.63 0 00.626-.643.63.63 0 00-.626-.642.639.639 0 00-.626.642c.015.359.291.643.626.643zm-4.613-7.608a.723.723 0 00.713-.732c0-.403-.32-.747-.713-.747-.393 0-.713.329-.713.747a.706.706 0 00.713.732zm-4.104-8.228a.498.498 0 00.495-.508.497.497 0 00-.495-.508.497.497 0 00-.495.508c.015.283.233.508.495.508zm-3.536-8.458c.174 0 .32-.149.32-.328a.327.327 0 00-.32-.329c-.19 0-.32.149-.32.329 0 .179.13.328.32.328zm-2.984-8.441a.396.396 0 00.393-.403.397.397 0 00-.393-.404.397.397 0 00-.393.404c0 .224.175.403.393.403zm-2.401-8.692c.219 0 .393-.18.393-.404a.396.396 0 00-.393-.403.396.396 0 00-.392.403c0 .224.174.404.392.404zm-1.819-8.846a.396.396 0 00.393-.403.397.397 0 00-.393-.404.397.397 0 00-.393.404c0 .224.175.403.393.403zm-1.208-9.021c.175 0 .32-.149.32-.328a.327.327 0 00-.32-.329.318.318 0 00-.32.329c0 .179.146.328.32.328zm-.61-9.162c.101 0 .188-.09.188-.194a.196.196 0 00-.189-.195c-.102 0-.19.09-.19.195 0 .104.088.194.19.194zm0-8.949c.16 0 .291-.135.291-.299a.296.296 0 00-.291-.299.296.296 0 00-.291.299c0 .164.131.299.291.299zm.61-9.025c.16 0 .292-.134.292-.298a.296.296 0 00-.291-.299.296.296 0 00-.291.299c0 .164.13.298.29.298zm1.212-9.099a.136.136 0 00.134-.138.136.136 0 00-.134-.138.136.136 0 00-.134.138c0 .076.06.138.134.138zm1.815-8.794c.102 0 .19-.09.19-.194 0-.12-.088-.21-.19-.21-.102 0-.19.09-.19.21-.014.104.074.194.19.194zm2.405-8.761a.136.136 0 00.134-.138.136.136 0 00-.134-.138.136.136 0 00-.134.138c0 .076.06.138.134.138zm2.982-8.614c.015 0 .03-.016.03-.032 0-.015-.015-.031-.03-.031-.016 0-.031.016-.031.031-.015.016 0 .032.03.032zm3.536-8.276c.015 0 .03-.016.03-.032s-.015-.032-.03-.032c-.016 0-.031.016-.031.032s.015.032.03.032zm4.104-7.945c.06 0 .104-.046.104-.107 0-.062-.044-.108-.104-.108a.103.103 0 00-.104.108c0 .061.045.107.104.107zm4.613-7.692c.06 0 .104-.046.104-.108a.103.103 0 00-.104-.107.103.103 0 00-.104.107c0 .062.045.108.104.108zm5.138-7.317a.136.136 0 00.134-.138.136.136 0 00-.134-.138.135.135 0 00-.134.138c0 .077.059.138.134.138zm5.602-7.011c.06 0 .105-.046.105-.108a.104.104 0 00-.105-.107.103.103 0 00-.104.107c0 .062.045.108.104.108zm6.068-6.555c.06 0 .104-.046.104-.107 0-.062-.044-.108-.104-.108s-.104.046-.104.108c0 .06.044.107.104.107zm6.49-6.11c.06 0 .105-.046.105-.108a.104.104 0 00-.105-.107.103.103 0 00-.104.107c0 .062.045.108.104.108zm6.883-5.714c.015 0 .031-.016.031-.032s-.016-.032-.031-.032c-.016 0-.031.016-.031.032s.015.032.031.032zm7.247-5.134c.015 0 .031-.016.031-.031 0-.016-.016-.032-.031-.032-.016 0-.031.016-.031.032 0 .015.015.031.031.031zm-2.418 232.919c1.077 0 1.965-.896 1.965-2.016 0-1.106-.873-2.017-1.965-2.017-1.077 0-1.964.896-1.964 2.017.014 1.12.887 2.016 1.964 2.016zm-7.377-4.828c1.135 0 2.052-.941 2.052-2.107 0-1.165-.917-2.106-2.052-2.106s-2.052.941-2.052 2.106c0 1.151.917 2.107 2.052 2.107zm-7.058-5.672c.99 0 1.79-.821 1.79-1.837s-.8-1.838-1.79-1.838c-.989 0-1.79.822-1.79 1.838-.014 1.001.801 1.837 1.79 1.837zm-6.709-5.766c1.048 0 1.892-.867 1.892-1.942 0-1.076-.844-1.942-1.892-1.942s-1.892.866-1.892 1.942c0 1.075.844 1.942 1.892 1.942zm-6.33-6.964c.684 0 1.237-.567 1.237-1.27 0-.702-.553-1.27-1.237-1.27s-1.237.568-1.237 1.27c0 .703.553 1.27 1.237 1.27zm-5.923-6.909c.582 0 1.047-.478 1.047-1.075 0-.598-.465-1.076-1.047-1.076-.583 0-1.048.478-1.048 1.076 0 .597.465 1.075 1.048 1.075zm-5.487-7.062c.582 0 1.048-.478 1.048-1.076 0-.597-.466-1.076-1.048-1.076-.582 0-1.047.479-1.047 1.076 0 .598.465 1.076 1.047 1.076zm-5.049-7.544c.51 0 .917-.418.917-.941a.925.925 0 00-.917-.941.925.925 0 00-.917.941c.015.523.422.941.917.941zM92.8 188.99a.724.724 0 00.712-.733.724.724 0 00-.713-.732.724.724 0 00-.713.732c0 .404.306.733.713.733zm-4.075-7.922a.825.825 0 00.815-.837.824.824 0 00-.815-.836.824.824 0 00-.815.836.816.816 0 00.815.837zm-3.565-8.275a.824.824 0 00.815-.836.825.825 0 00-.815-.837.825.825 0 00-.815.837c0 .463.364.836.815.836zm-3.042-8.456a.856.856 0 00.844-.866.857.857 0 00-.844-.867.857.857 0 00-.844.867.837.837 0 00.844.866zm-2.518-8.903a.63.63 0 00.626-.642.63.63 0 00-.626-.643.64.64 0 00-.625.643c.014.358.29.642.625.642zm-1.949-8.849a.59.59 0 00.582-.598.59.59 0 00-.582-.597.59.59 0 00-.582.597c0 .33.26.598.582.598zm-1.413-8.821a.693.693 0 00.684-.702.693.693 0 00-.684-.703.693.693 0 00-.684.703c0 .388.306.702.684.702zm-.843-9.166a.529.529 0 00.524-.538.529.529 0 00-.524-.538.529.529 0 00-.523.538c0 .299.232.538.523.538zm-.277-9.082a.497.497 0 00.495-.508.497.497 0 00-.495-.508.497.497 0 00-.495.508c0 .284.219.508.495.508zm.277-9.098a.428.428 0 00.422-.433.428.428 0 00-.422-.433.428.428 0 00-.422.433c0 .239.19.433.422.433zm.845-9.005a.428.428 0 00.421-.433.428.428 0 00-.422-.433.428.428 0 00-.422.433c0 .239.19.433.422.433zm1.411-9.029c.175 0 .32-.15.32-.329a.327.327 0 00-.32-.328c-.19 0-.32.149-.32.328-.015.18.13.329.32.329zm1.95-8.944c.102 0 .19-.09.19-.195a.195.195 0 00-.19-.194c-.102 0-.19.09-.19.194 0 .105.088.194.19.194zm2.518-8.55c.177 0 .32-.146.32-.328a.325.325 0 00-.32-.329.324.324 0 00-.32.33c0 .18.143.328.32.328zm3.043-8.666a.136.136 0 00.134-.138.136.136 0 00-.134-.138.136.136 0 00-.134.138c0 .077.06.138.134.138zm3.563-8.21c.102 0 .19-.09.19-.195 0-.119-.088-.209-.19-.209-.102 0-.189.09-.189.21-.014.104.073.194.19.194zm4.077-8.108c.06 0 .105-.046.105-.107a.103.103 0 00-.105-.108.103.103 0 00-.104.108c0 .061.045.107.104.107zm4.552-7.638c.102 0 .19-.09.19-.195 0-.12-.088-.209-.19-.209-.102 0-.19.09-.19.21 0 .104.088.194.19.194zm5.053-7.478a.136.136 0 00.134-.137.136.136 0 00-.134-.138.135.135 0 00-.134.138c0 .076.059.138.134.138zm5.486-7.116a.103.103 0 00.104-.108.103.103 0 00-.104-.107.104.104 0 00-.105.107c0 .062.045.108.105.108zm5.922-6.697c.06 0 .105-.046.105-.107a.104.104 0 00-.105-.107.103.103 0 00-.104.107c0 .061.045.107.104.107zm6.33-6.347c.015 0 .031-.017.031-.033s-.016-.032-.031-.032c-.016 0-.031.016-.031.032s.015.032.031.032zm26.526 242.18c1.412 0 2.547-1.165 2.547-2.615 0-1.449-1.135-2.614-2.547-2.614-1.411 0-2.546 1.165-2.546 2.614 0 1.45 1.135 2.615 2.546 2.615zm-7.756-4.538c1.266 0 2.285-1.046 2.285-2.345 0-1.3-1.019-2.346-2.285-2.346-1.266 0-2.284 1.061-2.284 2.346-.015 1.284 1.018 2.345 2.284 2.345zm-7.494-4.636c1.339 0 2.416-1.106 2.416-2.48 0-1.375-1.077-2.48-2.416-2.48s-2.416 1.105-2.416 2.48c0 1.374 1.077 2.48 2.416 2.48zm-7.203-5.434c1.205 0 2.183-1.004 2.183-2.241 0-1.238-.978-2.241-2.183-2.241-1.206 0-2.183 1.003-2.183 2.241 0 1.237.977 2.241 2.183 2.241zm-6.884-5.166c1.455 0 2.649-1.21 2.649-2.719 0-1.494-1.179-2.719-2.649-2.719s-2.648 1.21-2.648 2.719 1.178 2.719 2.648 2.719zm-6.548-6.29c1.339 0 2.416-1.105 2.416-2.48 0-1.374-1.077-2.48-2.416-2.48s-2.415 1.106-2.415 2.48c-.015 1.375 1.076 2.48 2.415 2.48zm-6.184-6.445c1.338 0 2.415-1.106 2.415-2.48 0-1.375-1.077-2.48-2.415-2.48-1.339 0-2.416 1.105-2.416 2.48 0 1.374 1.077 2.48 2.416 2.48zm-5.807-7.515c.96 0 1.732-.792 1.732-1.778s-.772-1.778-1.732-1.778-1.732.792-1.732 1.778c.015.986.786 1.778 1.732 1.778zm-5.385-7.479c.772 0 1.412-.643 1.412-1.434a1.42 1.42 0 00-1.411-1.435c-.772 0-1.397.643-1.397 1.435 0 .791.626 1.434 1.397 1.434zm-4.962-7.38c.828 0 1.499-.689 1.499-1.539 0-.849-.671-1.538-1.499-1.538-.828 0-1.499.689-1.499 1.538 0 .85.671 1.539 1.499 1.539zm-4.511-7.758c.83 0 1.499-.687 1.499-1.538 0-.852-.67-1.539-1.5-1.539-.829 0-1.498.687-1.498 1.539a1.507 1.507 0 001.499 1.538zm-4.06-8.257c.698 0 1.28-.583 1.28-1.315 0-.717-.567-1.315-1.28-1.315-.699 0-1.28.583-1.28 1.315s.581 1.315 1.28 1.315zm-3.58-8.501c.583 0 1.048-.478 1.048-1.076 0-.597-.465-1.075-1.047-1.075-.583 0-1.048.478-1.048 1.075 0 .598.465 1.076 1.047 1.076zm-3.099-8.669a.857.857 0 00.844-.867.856.856 0 00-.844-.866.856.856 0 00-.844.866c0 .478.378.867.844.867zm-2.591-8.441c.582 0 1.048-.478 1.048-1.076 0-.598-.466-1.076-1.048-1.076-.582 0-1.048.478-1.048 1.076 0 .598.466 1.076 1.048 1.076zm-2.095-9.16a.693.693 0 00.684-.703.693.693 0 00-.684-.702.693.693 0 00-.684.702c0 .389.306.703.684.703zm-1.572-8.886a.693.693 0 00.684-.702.692.692 0 00-.684-.702.692.692 0 00-.684.702c0 .373.305.702.684.702zm-1.047-8.948a.724.724 0 00.713-.732.724.724 0 00-.713-.732.723.723 0 00-.713.732.715.715 0 00.713.732zm-.524-9.056a.693.693 0 00.684-.702.692.692 0 00-.684-.702.692.692 0 00-.684.702c0 .373.305.702.684.702zm0-9.111a.63.63 0 00.626-.642.64.64 0 00-.626-.643.63.63 0 00-.626.643.63.63 0 00.626.642zm.523-9.173a.497.497 0 00.495-.508.497.497 0 00-.495-.508.497.497 0 00-.494.508c0 .284.218.508.495.508zm1.048-8.939a.529.529 0 00.524-.538.529.529 0 00-.524-.538.529.529 0 00-.524.538c0 .299.233.538.524.538zm1.572-8.93a.497.497 0 00.495-.508.497.497 0 00-.495-.508.497.497 0 00-.495.508c0 .284.233.508.495.508zm2.095-8.785a.497.497 0 00.495-.508.497.497 0 00-.495-.508.497.497 0 00-.495.508c0 .284.218.508.495.508zm2.591-8.815c.189 0 .32-.15.32-.344a.318.318 0 00-.32-.329c-.175 0-.32.15-.32.329 0 .18.145.344.32.344zm3.099-8.396c.218 0 .393-.18.393-.404a.397.397 0 00-.393-.403.397.397 0 00-.393.403c0 .224.175.404.393.404zm3.58-8.067c.32 0 .582-.269.582-.598a.592.592 0 00-.582-.597.592.592 0 00-.582.597c0 .33.262.598.582.598zm4.06-8.321c.16 0 .291-.135.291-.299a.296.296 0 00-.29-.299.296.296 0 00-.292.299c0 .164.131.299.291.299zm4.512-7.768c.16 0 .29-.134.29-.299a.296.296 0 00-.29-.298.296.296 0 00-.291.298c0 .165.13.3.29.3zm4.964-7.657c.06 0 .104-.046.104-.107a.103.103 0 00-.104-.108.103.103 0 00-.104.108c.015.06.06.107.104.107zm5.399-7.129a.136.136 0 00.134-.138.136.136 0 00-.134-.138.136.136 0 00-.134.138c0 .077.06.138.134.138zm45.575 243.735c1.412 0 2.547-1.165 2.547-2.615 0-1.449-1.135-2.614-2.547-2.614-1.411 0-2.546 1.165-2.546 2.614 0 1.435 1.135 2.615 2.546 2.615zm-7.829-4.151c1.397 0 2.547-1.166 2.547-2.615 0-1.449-1.135-2.614-2.547-2.614-1.411 0-2.546 1.165-2.546 2.614 0 1.449 1.149 2.615 2.546 2.615zm-7.582-4.39c1.514 0 2.736-1.255 2.736-2.809 0-1.554-1.222-2.809-2.736-2.809-1.513 0-2.736 1.255-2.736 2.809-.014 1.539 1.223 2.809 2.736 2.809zm-7.334-5.361c1.338 0 2.415-1.105 2.415-2.48 0-1.374-1.077-2.48-2.415-2.48-1.339 0-2.416 1.106-2.416 2.48 0 1.375 1.091 2.48 2.416 2.48zm-7.029-5.309c1.412 0 2.547-1.165 2.547-2.614 0-1.45-1.135-2.615-2.547-2.615-1.411 0-2.546 1.165-2.546 2.615 0 1.449 1.135 2.614 2.546 2.614zm-6.738-5.672c1.495 0 2.707-1.244 2.707-2.779s-1.212-2.779-2.707-2.779c-1.495 0-2.706 1.244-2.706 2.779s1.211 2.779 2.706 2.779zm-6.403-6.097c1.543 0 2.809-1.285 2.809-2.883 0-1.599-1.266-2.884-2.809-2.884-1.557 0-2.808 1.285-2.808 2.884 0 1.598 1.266 2.883 2.808 2.883zm-6.052-6.679c1.498 0 2.706-1.24 2.706-2.778 0-1.539-1.208-2.779-2.707-2.779-1.498 0-2.706 1.24-2.706 2.779 0 1.523 1.222 2.778 2.706 2.778zm-5.676-7.324c1.28 0 2.314-1.061 2.314-2.375 0-1.315-1.033-2.376-2.314-2.376-1.28 0-2.314 1.061-2.314 2.376 0 1.314 1.033 2.375 2.314 2.375zm-5.297-7.216c1.28 0 2.314-1.061 2.314-2.375 0-1.315-1.033-2.376-2.314-2.376-1.28 0-2.314 1.061-2.314 2.376 0 1.314 1.033 2.375 2.314 2.375zm-4.89-7.555c1.266 0 2.285-1.045 2.285-2.345 0-1.3-1.019-2.346-2.285-2.346-1.266 0-2.285 1.046-2.285 2.346s1.019 2.345 2.285 2.345zm-4.481-8.43c.916 0 1.673-.762 1.673-1.703 0-.941-.742-1.703-1.673-1.703-.917 0-1.66.762-1.66 1.703 0 .941.743 1.703 1.66 1.703zm-4.046-7.899c.99 0 1.804-.822 1.804-1.838s-.8-1.837-1.804-1.837-1.79.821-1.79 1.837.8 1.838 1.79 1.838zm-3.595-8.253c.99 0 1.79-.821 1.79-1.837s-.8-1.853-1.79-1.853-1.79.822-1.79 1.853c0 1.016.8 1.837 1.79 1.837zm-3.143-8.813c.8 0 1.44-.657 1.44-1.479 0-.822-.64-1.479-1.44-1.479-.786 0-1.44.657-1.44 1.479.014.807.654 1.479 1.44 1.479zm-2.678-8.482c.859 0 1.572-.717 1.572-1.613 0-.882-.699-1.614-1.572-1.614-.873 0-1.571.717-1.571 1.614.014.896.713 1.613 1.571 1.613zm-2.198-9.187c.626 0 1.15-.523 1.15-1.18 0-.657-.51-1.18-1.15-1.18-.625 0-1.15.523-1.15 1.18 0 .657.525 1.18 1.15 1.18zm-1.717-8.976c.582 0 1.048-.479 1.048-1.076 0-.598-.466-1.076-1.048-1.076-.582 0-1.048.478-1.048 1.076 0 .597.466 1.076 1.048 1.076zm-1.237-8.921a1.09 1.09 0 001.077-1.106c0-.612-.48-1.105-1.077-1.105a1.09 1.09 0 00-1.077 1.105c0 .613.48 1.106 1.077 1.106zm-.726-9.042c.582 0 1.047-.478 1.047-1.076 0-.598-.465-1.076-1.047-1.076-.582 0-1.048.478-1.048 1.076 0 .583.465 1.076 1.048 1.076zm-.249-9.007a1.09 1.09 0 001.077-1.106c0-.612-.48-1.105-1.077-1.105a1.09 1.09 0 00-1.077 1.105c0 .613.48 1.106 1.077 1.106zm.248-9.305a.825.825 0 00.815-.837.825.825 0 00-.815-.837.825.825 0 00-.815.837.816.816 0 00.815.837zm.728-9.013a.825.825 0 00.815-.837.824.824 0 00-.815-.836.824.824 0 00-.815.836c0 .463.363.837.815.837zM57.7 92.85a.825.825 0 00.815-.838.825.825 0 00-.815-.836.825.825 0 00-.815.836c0 .464.364.837.815.837zm1.716-9.113a.59.59 0 00.582-.597.59.59 0 00-.582-.598.59.59 0 00-.582.598c0 .33.26.597.582.597zm2.198-8.604a.724.724 0 00.713-.732.724.724 0 00-.713-.732.724.724 0 00-.713.732c0 .403.32.732.713.732zm2.678-8.922a.428.428 0 00.422-.433c0-.24-.19-.433-.422-.433a.428.428 0 00-.422.433c0 .239.189.433.422.433zm3.143-8.562c.19 0 .32-.15.32-.33a.327.327 0 00-.32-.328c-.175 0-.32.15-.32.329 0 .18.145.329.32.329zm3.595-8.135a.428.428 0 00.421-.433.428.428 0 00-.422-.434.428.428 0 00-.422.434c0 .224.19.433.422.433zm4.045-8.039a.428.428 0 00.421-.433.428.428 0 00-.421-.434.428.428 0 00-.422.434c0 .239.189.433.421.433zm4.485-8.095a.136.136 0 00.135-.138.136.136 0 00-.134-.137.136.136 0 00-.135.138c0 .076.06.137.135.137zm4.888-7.622c.015 0 .03-.016.03-.032s-.015-.032-.03-.032c-.016 0-.031.016-.031.032s.015.032.03.032zm57.669 251.418c1.528 0 2.779-1.27 2.779-2.854 0-1.568-1.237-2.853-2.779-2.853-1.528 0-2.78 1.27-2.78 2.853 0 1.569 1.252 2.854 2.78 2.854zm-7.888-4.096c1.499 0 2.707-1.24 2.707-2.779s-1.208-2.779-2.707-2.779c-1.498 0-2.706 1.24-2.706 2.779 0 1.524 1.208 2.779 2.706 2.779zm-7.668-4.018c1.732 0 3.129-1.434 3.129-3.212 0-1.778-1.397-3.227-3.129-3.227s-3.129 1.434-3.129 3.227c0 1.763 1.397 3.212 3.129 3.212zm-7.422-5.063c1.63 0 2.94-1.344 2.94-3.017 0-1.674-1.31-3.018-2.94-3.018s-2.939 1.344-2.939 3.018c0 1.673 1.309 3.017 2.939 3.017zm-7.175-5.261c1.63 0 2.94-1.345 2.94-3.018 0-1.673-1.31-3.018-2.94-3.018-1.629 0-2.939 1.345-2.939 3.018 0 1.658 1.324 3.018 2.939 3.018zm-6.883-5.945c1.456 0 2.649-1.211 2.649-2.719 0-1.494-1.179-2.72-2.649-2.72-1.469 0-2.648 1.211-2.648 2.72 0 1.508 1.193 2.719 2.648 2.719zm-6.591-5.827c1.557 0 2.808-1.285 2.808-2.883 0-1.599-1.251-2.884-2.808-2.884-1.558 0-2.81 1.285-2.81 2.884 0 1.583 1.267 2.883 2.81 2.883zm-6.258-6.366c1.557 0 2.809-1.285 2.809-2.884 0-1.598-1.252-2.883-2.809-2.883-1.543 0-2.808 1.285-2.808 2.883 0 1.599 1.251 2.884 2.808 2.884zm-5.937-6.974c1.397 0 2.518-1.15 2.518-2.584 0-1.435-1.12-2.585-2.518-2.585-1.397 0-2.517 1.15-2.517 2.585 0 1.419 1.12 2.584 2.517 2.584zm-5.589-6.719c1.528 0 2.78-1.27 2.78-2.853 0-1.569-1.252-2.854-2.78-2.854-1.528 0-2.78 1.27-2.78 2.854 0 1.568 1.252 2.853 2.78 2.853zm-5.209-7.665c1.339 0 2.416-1.105 2.416-2.48 0-1.374-1.077-2.48-2.416-2.48s-2.416 1.106-2.416 2.48c0 1.375 1.077 2.48 2.416 2.48zm-4.846-7.863c1.179 0 2.125-.971 2.125-2.181s-.946-2.181-2.125-2.181c-1.164 0-2.125.971-2.125 2.181.015 1.195.96 2.181 2.125 2.181zm-4.424-7.81c1.164 0 2.124-.971 2.124-2.181s-.945-2.181-2.124-2.181c-1.179 0-2.125.971-2.125 2.181 0 1.195.946 2.181 2.125 2.181zm-4.031-8.679c.83 0 1.5-.687 1.5-1.539 0-.851-.67-1.539-1.5-1.539s-1.499.688-1.499 1.539a1.508 1.508 0 001.5 1.539zm-3.624-8.117c.903 0 1.63-.747 1.63-1.673s-.727-1.673-1.63-1.673c-.902 0-1.63.747-1.63 1.673s.728 1.673 1.63 1.673zm-3.172-8.845c.684 0 1.237-.567 1.237-1.269 0-.703-.553-1.27-1.237-1.27s-1.237.567-1.237 1.27a1.243 1.243 0 001.237 1.269zm-2.75-8.825c.553 0 1.019-.463 1.019-1.046 0-.568-.451-1.031-1.019-1.031-.553 0-1.018.463-1.018 1.031.014.583.465 1.046 1.018 1.046zm-2.3-8.918a.825.825 0 00.815-.837.824.824 0 00-.815-.836.824.824 0 00-.815.836c0 .449.364.837.815.837zm-1.848-8.846a.824.824 0 00.815-.836.824.824 0 00-.815-.837.824.824 0 00-.815.837c0 .463.364.836.815.836zm-1.382-8.605c.626 0 1.15-.522 1.15-1.18 0-.657-.51-1.18-1.15-1.18-.625 0-1.15.523-1.15 1.18 0 .658.525 1.18 1.15 1.18zm-.931-9.221c.51 0 .917-.418.917-.941a.925.925 0 00-.917-.941.925.925 0 00-.917.941c0 .508.407.941.917.941zm-.466-9.138a.824.824 0 00.815-.836.825.825 0 00-.815-.837.825.825 0 00-.815.837c0 .463.364.836.815.836zm0-9.007a.857.857 0 00.844-.867.856.856 0 00-.844-.866.856.856 0 00-.844.866c0 .478.378.867.844.867zm.466-9.16a.724.724 0 00.713-.733c0-.403-.32-.746-.713-.746-.393 0-.713.328-.713.746 0 .404.32.733.713.733zm.931-8.754a.959.959 0 00.946-.971.959.959 0 00-.946-.971.959.959 0 00-.946.97c0 .537.423.972.946.972zm1.382-9.148a.762.762 0 00.757-.777.762.762 0 00-.757-.777.771.771 0 00-.757.777c.015.433.35.777.757.777zm1.848-9.094c.262 0 .48-.224.48-.508a.495.495 0 00-.48-.508.497.497 0 00-.495.508c.015.284.233.508.495.508zm2.3-8.745a.497.497 0 00.495-.508.497.497 0 00-.494-.508.497.497 0 00-.495.508c.014.284.233.508.495.508zm2.75-8.589a.497.497 0 00.495-.508.497.497 0 00-.495-.508.497.497 0 00-.494.508c0 .284.218.508.494.508zm3.173-8.696a.233.233 0 00.233-.239.233.233 0 10-.466 0c.015.135.117.24.233.24zm89.409 237.86c1.717 0 3.099-1.419 3.099-3.182s-1.382-3.182-3.099-3.182c-1.718 0-3.1 1.434-3.1 3.182-.015 1.763 1.382 3.182 3.1 3.182zm-8.121-3.442c1.746 0 3.172-1.464 3.172-3.257 0-1.793-1.411-3.257-3.172-3.257-1.746 0-3.173 1.449-3.173 3.257s1.427 3.257 3.173 3.257zm-7.93-4.088c1.659 0 2.998-1.375 2.998-3.093 0-1.703-1.339-3.077-2.998-3.077-1.659 0-2.998 1.374-2.998 3.077-.014 1.703 1.324 3.093 2.998 3.093zm-7.743-4.154c1.747 0 3.173-1.464 3.173-3.256 0-1.793-1.412-3.257-3.173-3.257-1.746 0-3.172 1.449-3.172 3.257 0 1.792 1.426 3.256 3.172 3.256zm-7.523-4.693c1.761 0 3.202-1.479 3.202-3.286 0-1.808-1.426-3.287-3.202-3.287-1.761 0-3.201 1.479-3.201 3.287 0 1.822 1.44 3.286 3.201 3.286zm-7.276-5.286c1.659 0 3.012-1.374 3.012-3.092 0-1.704-1.353-3.078-3.012-3.078s-2.998 1.374-2.998 3.078c0 1.703 1.339 3.092 2.998 3.092zm-7.014-5.575c1.601 0 2.91-1.33 2.91-2.988 0-1.643-1.295-2.988-2.91-2.988-1.601 0-2.91 1.345-2.91 2.988 0 1.658 1.295 2.988 2.91 2.988zm-6.752-5.705c1.659 0 3.012-1.375 3.012-3.078 0-1.703-1.353-3.078-3.012-3.078s-2.998 1.375-2.998 3.078c-.014 1.703 1.339 3.078 2.998 3.078zm-6.461-6.38c1.527 0 2.779-1.27 2.779-2.854 0-1.568-1.237-2.853-2.78-2.853-1.527 0-2.779 1.27-2.779 2.853.015 1.569 1.252 2.854 2.78 2.854zm-6.156-6.484c1.528 0 2.78-1.27 2.78-2.853 0-1.569-1.252-2.854-2.78-2.854-1.528 0-2.78 1.27-2.78 2.854.015 1.583 1.252 2.853 2.78 2.853zm-5.822-6.608c1.63 0 2.94-1.344 2.94-3.017 0-1.674-1.31-3.018-2.94-3.018s-2.939 1.344-2.939 3.018c0 1.658 1.31 3.017 2.94 3.017zm-5.486-6.97c1.673 0 3.041-1.39 3.041-3.123 0-1.718-1.368-3.122-3.041-3.122-1.674 0-3.041 1.389-3.041 3.122 0 1.733 1.353 3.123 3.04 3.123zm-5.151-7.336c1.674 0 3.042-1.404 3.042-3.122 0-1.719-1.353-3.123-3.042-3.123-1.673 0-3.041 1.404-3.041 3.123 0 1.718 1.368 3.122 3.041 3.122zm-4.773-8.112c1.412 0 2.547-1.165 2.547-2.614 0-1.449-1.15-2.615-2.547-2.615-1.397 0-2.546 1.166-2.546 2.615 0 1.449 1.135 2.614 2.546 2.614zm-4.409-7.934c1.353 0 2.445-1.121 2.445-2.51 0-1.39-1.092-2.51-2.445-2.51-1.353 0-2.445 1.12-2.445 2.51 0 1.389 1.092 2.51 2.445 2.51zm-4.016-9.011c.83 0 1.499-.687 1.499-1.539 0-.851-.67-1.538-1.5-1.538-.829 0-1.498.687-1.498 1.538 0 .837.67 1.539 1.499 1.539zm-3.625-8.487c.699 0 1.281-.583 1.281-1.315 0-.717-.568-1.315-1.28-1.315-.7 0-1.281.583-1.281 1.315s.582 1.315 1.28 1.315zm-3.214-8.405c.707 0 1.28-.589 1.28-1.315s-.573-1.315-1.28-1.315c-.708 0-1.281.589-1.281 1.315s.573 1.315 1.28 1.315zm-2.81-8.58c.699 0 1.281-.583 1.281-1.315 0-.717-.568-1.315-1.28-1.315-.7 0-1.281.583-1.281 1.315s.582 1.315 1.28 1.315zm-2.386-8.844c.626 0 1.15-.523 1.15-1.18 0-.642-.51-1.18-1.15-1.18-.64 0-1.15.523-1.15 1.18.015.657.524 1.18 1.15 1.18zm-1.964-8.945c.552 0 1.018-.463 1.018-1.046 0-.568-.451-1.046-1.019-1.046-.553 0-1.018.463-1.018 1.046.014.583.465 1.046 1.018 1.046zm-1.528-9.177a.767.767 0 00.756-.777.767.767 0 00-.756-.777.767.767 0 00-.757.777c0 .429.339.777.757.777zm-1.092-8.905a.824.824 0 00.814-.836.825.825 0 00-.815-.837.825.825 0 00-.815.837c0 .463.364.836.815.836zm-.655-9.082a.767.767 0 00.756-.777.767.767 0 00-.756-.777.767.767 0 00-.757.777c0 .429.339.777.757.777zm-.219-9.081a.724.724 0 00.713-.732.724.724 0 00-.713-.732.724.724 0 00-.713.732.715.715 0 00.713.732zm.219-9.072a.693.693 0 00.684-.703.692.692 0 00-.684-.702.693.693 0 00-.684.702c0 .389.306.703.684.703zm.655-9.023a.693.693 0 00.683-.702.693.693 0 00-.683-.702.693.693 0 00-.684.702c0 .388.305.702.684.702zm1.091-9.083a.59.59 0 00.582-.597.59.59 0 00-.582-.597.59.59 0 00-.582.597c0 .33.26.598.582.598zm1.529-9.203c.16 0 .29-.135.29-.299a.296.296 0 00-.29-.299.296.296 0 00-.292.3c0 .163.131.298.291.298zm4.352-17.775c.015 0 .03-.016.03-.032s-.015-.032-.03-.032-.031.016-.031.032.016.032.03.032zm102.053 235.435c1.746 0 3.173-1.449 3.173-3.257 0-1.792-1.412-3.257-3.173-3.257-1.746 0-3.172 1.45-3.172 3.257.014 1.808 1.426 3.257 3.172 3.257zm-8.149-3.362c1.79 0 3.231-1.479 3.231-3.316 0-1.838-1.456-3.317-3.231-3.317-1.79 0-3.231 1.479-3.231 3.317 0 1.822 1.456 3.316 3.231 3.316zm-7.975-3.902c1.746 0 3.172-1.449 3.172-3.256 0-1.808-1.411-3.257-3.172-3.257-1.761 0-3.172 1.449-3.172 3.257 0 1.807 1.426 3.256 3.172 3.256zm-7.8-4.211c1.746 0 3.172-1.45 3.172-3.257 0-1.793-1.411-3.257-3.172-3.257-1.746 0-3.172 1.464-3.172 3.257 0 1.807 1.426 3.257 3.172 3.257zm-7.597-4.676c1.689 0 3.071-1.405 3.071-3.153s-1.382-3.152-3.071-3.152c-1.702 0-3.07 1.419-3.07 3.152s1.382 3.153 3.07 3.153zm-7.363-4.858c1.747 0 3.173-1.449 3.173-3.257 0-1.792-1.412-3.256-3.173-3.256-1.746 0-3.172 1.449-3.172 3.256 0 1.808 1.412 3.257 3.172 3.257zm-7.145-5.329c1.732 0 3.129-1.434 3.129-3.227 0-1.778-1.397-3.212-3.129-3.212s-3.129 1.434-3.129 3.212c0 1.793 1.397 3.227 3.13 3.227zm-6.883-5.667c1.717 0 3.1-1.419 3.1-3.182s-1.397-3.182-3.1-3.182c-1.717 0-3.1 1.434-3.1 3.182s1.383 3.182 3.1 3.182zm-6.621-6.002c1.688 0 3.07-1.419 3.07-3.152s-1.382-3.152-3.07-3.152c-1.703 0-3.07 1.404-3.07 3.152 0 1.748 1.367 3.152 3.07 3.152zm-6.345-6.214c1.728 0 3.129-1.438 3.129-3.212 0-1.774-1.4-3.212-3.129-3.212-1.728 0-3.128 1.438-3.128 3.212 0 1.774 1.4 3.212 3.128 3.212zm-6.039-6.681c1.68 0 3.041-1.398 3.041-3.122s-1.362-3.122-3.041-3.122c-1.68 0-3.042 1.398-3.042 3.122s1.362 3.122 3.042 3.122zm-5.734-6.766c1.728 0 3.129-1.438 3.129-3.212 0-1.774-1.4-3.212-3.129-3.212-1.728 0-3.129 1.438-3.129 3.212 0 1.774 1.401 3.212 3.13 3.212zm-5.413-7.006c1.805 0 3.26-1.494 3.26-3.361 0-1.853-1.455-3.347-3.26-3.347-1.804 0-3.26 1.494-3.26 3.347 0 1.867 1.456 3.361 3.26 3.361zm-5.079-7.62c1.674 0 3.042-1.405 3.042-3.123 0-1.718-1.368-3.122-3.042-3.122-1.673 0-3.041 1.389-3.041 3.122.015 1.718 1.368 3.123 3.041 3.123zm-4.73-8.445c1.252 0 2.256-1.045 2.256-2.315s-1.004-2.316-2.256-2.316c-1.251 0-2.255 1.031-2.255 2.316 0 1.284 1.018 2.315 2.255 2.315zm-4.365-8.319c.99 0 1.79-.821 1.79-1.837s-.8-1.853-1.79-1.853-1.804.822-1.804 1.853c0 1.016.815 1.837 1.804 1.837zm-4.017-8.055c.99 0 1.79-.821 1.79-1.852 0-1.016-.8-1.838-1.79-1.838-.989 0-1.79.822-1.79 1.838 0 1.031.801 1.852 1.79 1.852zm-3.622-8.767c.707 0 1.28-.589 1.28-1.315s-.573-1.315-1.28-1.315c-.708 0-1.281.589-1.281 1.315s.573 1.315 1.28 1.315zm-3.261-8.441c.684 0 1.237-.568 1.237-1.27 0-.703-.553-1.27-1.237-1.27s-1.237.567-1.237 1.27c0 .702.553 1.27 1.237 1.27zm-2.851-8.652c.625 0 1.15-.523 1.15-1.181 0-.642-.51-1.18-1.15-1.18-.64 0-1.15.523-1.15 1.18 0 .658.51 1.181 1.15 1.181zm-2.475-8.591c.684 0 1.237-.567 1.237-1.27 0-.702-.553-1.269-1.236-1.269-.684 0-1.237.567-1.237 1.269 0 .703.553 1.27 1.236 1.27zm-2.051-8.888c.64 0 1.15-.523 1.15-1.18 0-.643-.51-1.18-1.15-1.18-.626 0-1.15.522-1.15 1.18 0 .657.51 1.18 1.15 1.18zm-1.66-8.871c.641 0 1.15-.523 1.15-1.18 0-.643-.509-1.18-1.15-1.18-.625 0-1.149.522-1.149 1.18 0 .642.524 1.18 1.15 1.18zm-1.236-9.055c.582 0 1.048-.478 1.048-1.076 0-.597-.466-1.075-1.048-1.075-.582 0-1.048.478-1.048 1.075 0 .583.466 1.076 1.048 1.076zm-.844-9.005c.582 0 1.047-.478 1.047-1.075 0-.598-.465-1.076-1.047-1.076-.582 0-1.048.478-1.048 1.076.015.597.48 1.075 1.048 1.075zm-.408-9.403a.693.693 0 00.684-.702.692.692 0 00-.684-.702.692.692 0 00-.684.702c0 .373.306.702.684.702zm0-9.157c.32 0 .582-.269.582-.598a.592.592 0 00-.582-.598.592.592 0 00-.582.598.583.583 0 00.582.598zm.407-9.325c.16 0 .291-.134.291-.298a.296.296 0 00-.291-.299.296.296 0 00-.291.299c0 .164.131.298.291.298zm.847-9.209c.06 0 .105-.046.105-.107a.103.103 0 00-.105-.107.103.103 0 00-.104.107c0 .061.045.107.104.107zm116.197 214.153c1.63 0 2.94-1.359 2.94-3.017 0-1.674-1.31-3.018-2.94-3.018s-2.939 1.344-2.939 3.018c0 1.673 1.324 3.017 2.939 3.017zm-8.164-2.895c1.873 0 3.391-1.558 3.391-3.481 0-1.922-1.518-3.481-3.391-3.481-1.872 0-3.39 1.559-3.39 3.481 0 1.923 1.518 3.481 3.39 3.481zm-8.033-3.918c1.79 0 3.231-1.479 3.231-3.317 0-1.837-1.441-3.316-3.231-3.316-1.79 0-3.23 1.494-3.23 3.316 0 1.838 1.455 3.317 3.23 3.317zm-7.844-4.492c1.572 0 2.838-1.299 2.838-2.913 0-1.613-1.266-2.913-2.838-2.913-1.571 0-2.837 1.3-2.837 2.913 0 1.599 1.266 2.913 2.837 2.913zm-7.669-4.465c1.572 0 2.853-1.315 2.853-2.914 0-1.613-1.281-2.913-2.853-2.913-1.571 0-2.837 1.3-2.837 2.913 0 1.614 1.28 2.914 2.837 2.914zm-7.45-4.572c1.688 0 3.07-1.419 3.07-3.152 0-1.748-1.382-3.153-3.07-3.153s-3.071 1.405-3.071 3.153c0 1.733 1.368 3.152 3.071 3.152zm-7.247-5.056c1.746 0 3.173-1.449 3.173-3.256 0-1.793-1.412-3.257-3.173-3.257-1.746 0-3.172 1.449-3.172 3.257 0 1.792 1.426 3.256 3.172 3.256zm-7-5.421c1.79 0 3.23-1.479 3.23-3.317 0-1.837-1.44-3.316-3.23-3.316s-3.23 1.479-3.23 3.316c-.015 1.838 1.44 3.317 3.23 3.317zm-6.766-5.78c1.79 0 3.23-1.494 3.23-3.317 0-1.838-1.455-3.317-3.23-3.317-1.79 0-3.23 1.494-3.23 3.317 0 1.823 1.44 3.317 3.23 3.317zm-6.505-6.005c1.848 0 3.332-1.539 3.332-3.421 0-1.883-1.484-3.421-3.332-3.421-1.834 0-3.333 1.538-3.333 3.421 0 1.882 1.499 3.421 3.333 3.421zm-6.228-6.533c1.768 0 3.201-1.471 3.201-3.286 0-1.816-1.433-3.287-3.201-3.287s-3.202 1.471-3.202 3.287c0 1.815 1.434 3.286 3.202 3.286zm-5.938-6.673c1.76 0 3.201-1.465 3.201-3.287 0-1.823-1.426-3.287-3.201-3.287-1.76 0-3.201 1.464-3.201 3.287 0 1.808 1.426 3.287 3.201 3.287zm-5.647-6.978c1.747 0 3.173-1.464 3.173-3.257 0-1.793-1.412-3.257-3.173-3.257-1.746 0-3.172 1.449-3.172 3.257 0 1.793 1.426 3.257 3.172 3.257zm-5.34-7.096c1.804 0 3.274-1.494 3.274-3.361 0-1.853-1.47-3.347-3.274-3.347-1.805 0-3.26 1.494-3.26 3.347-.014 1.867 1.456 3.361 3.26 3.361zm-5.02-8.411c1.28 0 2.314-1.061 2.314-2.376 0-1.314-1.033-2.375-2.314-2.375-1.28 0-2.314 1.061-2.314 2.375 0 1.315 1.033 2.376 2.314 2.376zm-4.686-7.648c1.28 0 2.313-1.06 2.313-2.375s-1.033-2.375-2.313-2.375c-1.28 0-2.314 1.06-2.314 2.375s1.033 2.375 2.314 2.375zm-4.351-8.146c1.135 0 2.052-.941 2.052-2.121 0-1.165-.917-2.107-2.052-2.107s-2.052.942-2.052 2.107c0 1.18.917 2.121 2.052 2.121zm-3.987-8.218c1.047 0 1.892-.867 1.892-1.942 0-1.076-.845-1.943-1.892-1.943-1.048 0-1.892.867-1.892 1.943-.015 1.06.844 1.942 1.892 1.942zm-3.654-8.571c.873 0 1.572-.717 1.572-1.613 0-.897-.699-1.614-1.572-1.614-.873 0-1.572.717-1.572 1.614 0 .896.714 1.613 1.572 1.613zm-3.274-8.325c.903 0 1.63-.746 1.63-1.673 0-.926-.727-1.673-1.63-1.673-.902 0-1.63.747-1.63 1.673 0 .927.728 1.673 1.63 1.673zm-2.91-8.546c.902 0 1.63-.747 1.63-1.674 0-.926-.728-1.673-1.63-1.673-.902 0-1.63.747-1.63 1.673 0 .927.728 1.674 1.63 1.674zm-2.532-9.884a.428.428 0 00.422-.433.428.428 0 00-.422-.433.428.428 0 00-.422.433.419.419 0 00.422.433zm-2.153-8.627a.59.59 0 00.582-.598.59.59 0 00-.582-.597.59.59 0 00-.582.597c0 .33.26.598.582.598zm-1.776-9.053c.218 0 .392-.18.392-.404a.396.396 0 00-.392-.403.396.396 0 00-.393.403c0 .224.189.404.393.404zM18 146.379a.296.296 0 00.292-.299.296.296 0 00-.291-.299.296.296 0 00-.291.299c0 .164.13.299.29.299zm-.989-9.098c.102 0 .19-.09.19-.194a.195.195 0 00-.19-.194.195.195 0 00-.19.194c-.014.104.088.194.19.194zm-.593-9.111c.06 0 .104-.046.104-.108a.103.103 0 00-.104-.107.103.103 0 00-.105.107c0 .062.045.108.105.108zm124.928 192.616c1.717 0 3.099-1.434 3.099-3.182s-1.382-3.182-3.099-3.182c-1.717 0-3.1 1.419-3.1 3.182s1.383 3.182 3.1 3.182zm-8.208-3.037c1.863 0 3.362-1.554 3.362-3.451 0-1.913-1.514-3.451-3.362-3.451-1.863 0-3.362 1.553-3.362 3.451 0 1.912 1.499 3.451 3.362 3.451zm-8.062-3.853c1.746 0 3.172-1.449 3.172-3.256 0-1.793-1.411-3.257-3.172-3.257-1.746 0-3.172 1.449-3.172 3.257.014 1.792 1.426 3.256 3.172 3.256zm-7.887-3.91c1.804 0 3.259-1.494 3.259-3.347 0-1.852-1.455-3.346-3.259-3.346-1.805 0-3.26 1.494-3.26 3.346-.014 1.838 1.455 3.347 3.26 3.347zm-7.727-4.318c1.819 0 3.304-1.509 3.304-3.391 0-1.867-1.47-3.391-3.304-3.391-1.819 0-3.303 1.509-3.303 3.391.014 1.867 1.484 3.391 3.303 3.391zm-7.538-4.588c1.877 0 3.405-1.554 3.405-3.481 0-1.927-1.528-3.481-3.405-3.481-1.877 0-3.39 1.569-3.39 3.481s1.527 3.481 3.39 3.481zm-7.32-5.019c1.877 0 3.39-1.554 3.39-3.481 0-1.928-1.513-3.481-3.39-3.481-1.877 0-3.39 1.553-3.39 3.481-.015 1.927 1.513 3.481 3.39 3.481zm-7.117-5.308c1.892 0 3.435-1.569 3.435-3.526 0-1.942-1.528-3.526-3.434-3.526-1.892 0-3.435 1.569-3.435 3.526 0 1.957 1.543 3.526 3.434 3.526zm-6.897-6.136c1.63 0 2.94-1.345 2.94-3.018 0-1.673-1.325-3.018-2.94-3.018-1.63 0-2.94 1.345-2.94 3.018.015 1.673 1.325 3.018 2.94 3.018zm-6.636-5.691c1.746 0 3.172-1.449 3.172-3.257 0-1.793-1.411-3.257-3.172-3.257-1.746 0-3.172 1.449-3.172 3.257 0 1.793 1.426 3.257 3.172 3.257zm-6.403-6.055c1.834 0 3.333-1.539 3.333-3.421 0-1.883-1.5-3.422-3.333-3.422-1.833 0-3.332 1.539-3.332 3.422 0 1.882 1.499 3.421 3.332 3.421zm-6.126-7.302c1.412 0 2.547-1.166 2.547-2.615 0-1.449-1.135-2.614-2.547-2.614-1.411 0-2.546 1.165-2.546 2.614 0 1.434 1.15 2.615 2.546 2.615zm-5.85-6.126c1.746 0 3.172-1.449 3.172-3.256 0-1.793-1.411-3.257-3.172-3.257-1.746 0-3.172 1.449-3.172 3.257 0 1.792 1.426 3.256 3.172 3.256zm-5.559-7.615c1.426 0 2.576-1.181 2.576-2.645s-1.15-2.644-2.576-2.644c-1.426 0-2.576 1.18-2.576 2.644-.014 1.464 1.15 2.645 2.576 2.645zm-5.267-7.249c1.426 0 2.576-1.181 2.576-2.645s-1.15-2.644-2.576-2.644c-1.426 0-2.576 1.195-2.576 2.644-.014 1.464 1.15 2.645 2.576 2.645zm-4.963-8.814c.698 0 1.28-.583 1.28-1.315 0-.717-.567-1.314-1.28-1.314-.699 0-1.28.582-1.28 1.314 0 .732.567 1.315 1.28 1.315zm-4.658-6.981c1.077 0 1.965-.897 1.965-2.017 0-1.106-.873-2.017-1.965-2.017-1.077 0-1.964.896-1.964 2.017 0 1.12.887 2.017 1.964 2.017zm-4.321-9.292c.32 0 .582-.269.582-.598a.592.592 0 00-.582-.597.592.592 0 00-.582.597c0 .329.262.598.582.598zm-3.987-7.381c.684 0 1.237-.568 1.237-1.27 0-.702-.553-1.27-1.237-1.27s-1.237.568-1.237 1.27c0 .702.553 1.27 1.237 1.27zm-3.651-9.462c.015 0 .03-.016.03-.032s-.015-.032-.03-.032c-.016 0-.031.016-.031.032s.015.032.03.032zm-3.303-8.321c.06 0 .105-.046.105-.107 0-.062-.045-.108-.105-.108s-.104.046-.104.108c0 .061.045.107.104.107zm-2.956-8.434c.102 0 .189-.09.189-.21a.195.195 0 00-.19-.194.195.195 0 00-.188.194c-.015.12.072.21.189.21zm-2.606-8.4a.428.428 0 00.422-.433.428.428 0 00-.422-.433.428.428 0 00-.422.433c0 .224.19.433.422.433zm133.168 156.393c1.873 0 3.391-1.559 3.391-3.481 0-1.923-1.518-3.481-3.391-3.481-1.872 0-3.39 1.558-3.39 3.481 0 1.922 1.518 3.481 3.39 3.481zm-8.338-3.736c1.426 0 2.576-1.18 2.576-2.644 0-1.464-1.15-2.645-2.576-2.645-1.426 0-2.576 1.181-2.576 2.645s1.15 2.644 2.576 2.644zm-8.222-4.617c.684 0 1.237-.568 1.237-1.27 0-.702-.553-1.27-1.237-1.27s-1.237.568-1.237 1.27c0 .702.553 1.27 1.237 1.27zm-8.091-1.286c1.935 0 3.492-1.598 3.492-3.585 0-1.987-1.571-3.586-3.492-3.586-1.936 0-3.493 1.614-3.493 3.586 0 1.987 1.557 3.585 3.493 3.585zm-7.931-4.555c1.586 0 2.866-1.315 2.866-2.943 0-1.628-1.28-2.958-2.866-2.958-1.587 0-2.867 1.315-2.867 2.958-.015 1.628 1.28 2.943 2.867 2.943zm-7.771-6.225a.958.958 0 00.946-.972.957.957 0 00-.946-.971.957.957 0 00-.946.971.949.949 0 00.946.972zm-7.611-3.708c.989 0 1.79-.822 1.79-1.837 0-1.016-.801-1.838-1.79-1.838-.99 0-1.805.822-1.805 1.838.015 1.015.815 1.837 1.805 1.837zm-7.408-6.287a.428.428 0 00.423-.433.429.429 0 00-.422-.434.429.429 0 00-.422.434c0 .239.189.433.422.433zm-7.203-2.557c1.66 0 2.998-1.375 2.998-3.078 0-1.703-1.353-3.077-2.998-3.077-1.659 0-3.012 1.374-3.012 3.077 0 1.703 1.339 3.078 3.012 3.078zm-6.999-6.801c.96 0 1.732-.792 1.732-1.778s-.771-1.777-1.732-1.777c-.96 0-1.732.791-1.732 1.777 0 .986.772 1.778 1.732 1.778zm-6.781-5.514c1.106 0 1.993-.911 1.993-2.046 0-1.136-.887-2.047-1.993-2.047s-1.994.911-1.994 2.047c0 1.135.902 2.046 1.994 2.046zm-6.534-5.148c1.586 0 2.867-1.314 2.867-2.958 0-1.628-1.28-2.958-2.867-2.958-1.586 0-2.867 1.33-2.867 2.958-.014 1.629 1.28 2.958 2.867 2.958zm-6.302-8.518a.762.762 0 00.757-.777.761.761 0 00-.757-.777.761.761 0 00-.756.777c.014.433.349.777.756.777zm-6.024-7.131c.13 0 .233-.104.233-.239a.233.233 0 00-.233-.239.233.233 0 00-.233.239c0 .135.102.239.233.239zm-5.777-5.883c.626 0 1.15-.523 1.15-1.18 0-.643-.51-1.18-1.15-1.18-.626 0-1.15.522-1.15 1.18.015.642.524 1.18 1.15 1.18zm-5.484-8.214c.015 0 .03-.016.03-.032 0-.015-.015-.031-.03-.031-.016 0-.031.016-.031.031-.016.016 0 .032.03.032zm-5.212-7.02c.16 0 .29-.134.29-.298a.296.296 0 00-.29-.299.296.296 0 00-.291.299c0 .164.13.298.29.298zm-4.917-7.709c.06 0 .105-.046.105-.107a.103.103 0 00-.105-.107.103.103 0 00-.104.107c0 .061.06.107.104.107zm-4.612-7.708c.06 0 .104-.046.104-.107a.103.103 0 00-.104-.107.103.103 0 00-.105.107c.015.061.06.107.105.107zm-11.933-24.259c.015 0 .03-.016.03-.032s-.015-.032-.03-.032c-.016 0-.031.016-.031.032-.016.016 0 .032.03.032zm130.952 133.557a.296.296 0 00.292-.298.296.296 0 00-.292-.299.296.296 0 00-.291.299c0 .164.131.298.291.298zm-8.35-3.056c.06 0 .104-.046.104-.108a.103.103 0 00-.104-.107.103.103 0 00-.104.107c.015.062.045.108.104.108zm-8.238-3.274c.016 0 .031-.016.031-.032s-.015-.032-.031-.032c-.015 0-.03.016-.03.032s.015.032.03.032zm-8.121-3.321a.233.233 0 00.233-.239.234.234 0 00-.233-.24.233.233 0 00-.232.24c.014.134.116.239.232.239zm-7.974-3.844a.233.233 0 00.233-.239.233.233 0 10-.466 0c.015.134.116.239.233.239zm-7.813-4.355c.015 0 .031-.016.031-.032s-.016-.032-.031-.032-.031.016-.031.032.016.032.031.032zm-7.656-4.309c.102 0 .189-.09.189-.194a.195.195 0 00-.19-.194c-.101 0-.203.089-.203.194 0 .104.087.194.204.194zm-7.492-4.878a.103.103 0 00.104-.107c0-.062-.045-.108-.105-.108s-.104.046-.104.108c.015.076.06.107.104.107zm-7.291-5.068c.06 0 .104-.046.104-.108a.103.103 0 00-.104-.107.103.103 0 00-.104.107c0 .062.044.108.104.108zm-7.087-5.363c.06 0 .104-.046.104-.107a.103.103 0 00-.104-.107.103.103 0 00-.104.107c0 .061.044.107.104.107zm-6.9-5.531a.195.195 0 00.189-.194.195.195 0 00-.19-.194.195.195 0 00-.188.194c0 .105.087.194.189.194zm-6.663-6.08c.015 0 .03-.016.03-.032s-.015-.032-.03-.032c-.016 0-.031.016-.031.032s.015.032.03.032zm-6.447-6.17c.016 0 .031-.016.031-.032s-.015-.032-.03-.032c-.016 0-.032.016-.032.032s.016.032.032.032zm-6.184-6.436c.015 0 .03-.016.03-.032s-.015-.032-.03-.032c-.016 0-.031.016-.031.032-.016.016.015.032.03.032zm-5.952-6.663c.015 0 .03-.016.03-.032s-.015-.032-.03-.032c-.016 0-.031.016-.031.032s0 .032.03.032zm-11.118-14.029c.016 0 .031-.016.031-.032s-.015-.032-.03-.032c-.016 0-.032.016-.032.032s.016.032.031.032zm78.334 78.746c.015 0 .031-.016.031-.032s-.016-.032-.031-.032c-.016 0-.031.016-.031.032s0 .032.031.032zm-7.873-4.075c.016 0 .031-.016.031-.032s-.015-.032-.031-.032c-.015 0-.031.016-.031.032s.016.032.031.032zm-7.712-4.364c.015 0 .03-.016.03-.032 0-.015-.015-.031-.03-.031 0 0-.031.016-.031.031 0 .016.015.032.03.032zm-7.539-4.677c.016 0 .031-.016.031-.032s-.015-.032-.03-.032c-.016 0-.031.016-.031.032s.015.032.03.032zm-7.362-4.948c.015 0 .03-.016.03-.032 0-.015-.015-.031-.03-.031-.016 0-.031.016-.031.031-.016.016 0 .032.03.032zm-7.19-5.238c.016 0 .031-.016.031-.032s-.015-.032-.03-.032c-.016 0-.032.016-.032.032s0 .032.031.032zm-6.984-5.499c.015 0 .03-.016.03-.032s-.015-.032-.03-.032c-.016 0-.03.016-.03.032-.016.016 0 .032.03.032zm-25.816-24.592c.015 0 .03-.016.03-.032s-.015-.032-.03-.032c-.016 0-.031.016-.031.032s.015.032.03.032zm-5.864-6.741c.015 0 .03-.016.03-.032s-.015-.032-.03-.032c-.016 0-.031.016-.031.032-.016.016 0 .032.03.032zm-5.632-6.959c.016 0 .031-.016.031-.032s-.015-.032-.03-.032c-.016 0-.032.016-.032.032s.016.032.031.032zm71.8 73.161c.015 0 .031-.016.031-.032s-.016-.032-.031-.032c-.016 0-.031.016-.031.032-.015.016 0 .032.031.032zm-44.033-29.744a.135.135 0 00.134-.138.136.136 0 00-.134-.138.136.136 0 00-.134.138c0 .077.06.138.134.138zm-25.454-25.083c.015 0 .03-.016.03-.032s-.015-.032-.03-.032c-.016 0-.031.016-.031.032s.015.032.03.032zm-5.791-6.816c.015 0 .03-.016.03-.032s-.015-.032-.03-.032c-.016 0-.031.016-.031.032s.015.032.03.032zm35.522 48.045c.015 0 .03-.016.03-.032s-.015-.032-.03-.032c-.016 0-.031.016-.031.032s.015.032.03.032zm-6.97-5.525c.015 0 .03-.016.03-.032s-.015-.032-.03-.032c-.016 0-.031.016-.031.032-.016.016 0 .032.03.032zM5.037 271.576c.016 0 .031-.016.031-.032s-.015-.032-.03-.032c-.016 0-.032.016-.032.032s.016.032.031.032zM.03 264.139c.016 0 .032-.016.032-.032s-.016-.032-.031-.032c-.016 0-.031.016-.031.032s.015.032.03.032z" fill="#000" fill-opacity=".5"/></svg>