<svg xmlns="http://www.w3.org/2000/svg" width="512" height="512"><g xmlns="http://www.w3.org/2000/svg" data-name="Retro Sofa"><path d="M392 400h48v40h-48zm-320 0h48v40H72z" fill="#7c7d98" data-original="#7c7d98"/><path d="M72 440s7.374-8 24-8 24 8 24 8v-24H72zm320 0s7.374-8 24-8 24 8 24 8v-24h-48z" fill="#2e305e" data-original="#2e305e"/><path d="M168 72h176a96 96 0 0196 96v160H72V168a96 96 0 0196-96z" fill="#f88f19" data-original="#f88f19"/><path d="M200 88h112a80 80 0 0180 80v168H120V168a80 80 0 0180-80z" fill="#f06000" data-original="#f06000"/><path d="M439.919 176h-24a64 64 0 00-64 64v88H160.081v-88a64 64 0 00-64-64h-24a63.964 63.964 0 00-32 119.368V384a32 32 0 0032 32h367.838a32 32 0 0032-32v-88.632a63.964 63.964 0 00-32-119.368z" fill="#f06000" data-original="#f06000"/><path d="M320 80H200c-32 0-56 32-56 64s24 64 56 64h120s-24-24-24-64 24-64 24-64z" fill="#f88f19" data-original="#f88f19"/><path d="M320 152s-16 16-64 16-64-16-64-16z" fill="#fcaa40" data-original="#fcaa40"/><path d="M168 264h176a32 32 0 0132 32v24H136v-24a32 32 0 0132-32z" fill="#f88f19" data-original="#f88f19"/><path d="M176 264s16 24 80 24 80-24 80-24z" fill="#ffc263" data-original="#ffc263"/><path d="M144 416v-96s16 16 16 48-16 48-16 48zm232-96v96s16-16 16-48-16-48-16-48z" fill="#f4791a" data-original="#f4791a"/><path d="M136 240v8h24v-8c-.525-34.893-28.9-64-63.919-64h-24l-.017.001C73.432 176.011 136 176 136 240zm240.064 0l-.064 8h-24l.064-8c.525-34.893 28.9-64 63.919-64h24l.017.001c-1.368.01-63.936-.001-63.936 63.999z" data-original="#fcaa40" fill="#fcaa40"/></g></svg>