<svg xmlns="http://www.w3.org/2000/svg" width="512" height="512" viewBox="0 0 682.667 682.667"><path xmlns="http://www.w3.org/2000/svg" d="M460.176 215.176l-104.801 104.8 104.8 104.797-35.35 35.36-104.802-104.801-104.796 104.8-35.36-35.359 104.801-104.796-104.8-104.801 35.359-35.352 104.796 104.801 104.801-104.8zM640 320c0 85.473-33.285 165.836-93.727 226.273C485.836 606.715 405.473 640 320 640s-165.836-33.285-226.273-93.727C33.285 485.836 0 405.473 0 320S33.285 154.164 93.727 93.727C154.164 33.285 234.527 0 320 0s165.836 33.285 226.273 93.727C606.715 154.164 640 234.527 640 320zm-50 0c0-148.875-121.125-270-270-270S50 171.125 50 320s121.125 270 270 270 270-121.125 270-270zm0 0" data-original="#000000"/></svg>